<?xml version="1.0" standalone="no"?>
<!DOCTYPE svg PUBLIC "-//W3C//DTD SVG 20010904//EN"
 "http://www.w3.org/TR/2001/REC-SVG-20010904/DTD/svg10.dtd">
<svg version="1.0" xmlns="http://www.w3.org/2000/svg"
 width="982.000000pt" height="982.000000pt" viewBox="0 0 982.000000 982.000000"
 preserveAspectRatio="xMidYMid meet">
<metadata>
Created by potrace 1.14, written by Peter Selinger 2001-2017
</metadata>
<g transform="translate(0.000000,982.000000) scale(0.100000,-0.100000)"
fill="#000000" stroke="none">
<path d="M530 9538 c0 -38 4 -68 9 -68 4 0 11 -39 15 -87 3 -49 11 -89 16 -91
6 -2 10 -15 10 -28 0 -21 5 -24 34 -24 43 0 199 -29 206 -39 3 -4 26 -15 52
-24 61 -24 138 -99 138 -137 0 -10 5 -20 10 -22 6 -2 16 -32 22 -68 7 -36 17
-68 22 -72 17 -11 15 -3140 -1 -3145 -7 -3 -13 -18 -13 -33 0 -41 -20 -130
-29 -130 -4 0 -13 -18 -20 -40 -6 -22 -16 -40 -21 -40 -5 0 -12 -9 -15 -20 -3
-11 -27 -32 -53 -47 -26 -15 -50 -31 -53 -36 -9 -13 -181 -46 -236 -47 -36 0
-43 -3 -43 -19 0 -11 -5 -21 -11 -23 -6 -2 -13 -41 -16 -86 -3 -45 -10 -82
-14 -82 -5 0 -9 -36 -9 -81 l0 -80 383 5 c799 12 1769 15 2482 8 407 -5 742
-7 743 -6 2 1 9 53 15 116 6 62 13 115 17 118 4 3 13 61 19 130 7 69 16 127
21 130 4 3 11 33 15 68 4 34 10 62 15 62 4 0 13 41 20 90 7 50 16 90 21 90 4
0 13 34 20 75 6 41 15 75 20 75 4 0 11 17 15 38 4 20 10 39 14 42 4 3 10 14
14 26 5 17 -2 26 -34 48 -22 14 -43 26 -46 26 -4 0 -12 6 -18 14 -6 7 -40 24
-76 36 -36 13 -67 27 -70 30 -5 7 -116 34 -181 45 l-37 6 -12 -51 c-7 -27 -16
-50 -20 -50 -4 0 -11 -16 -14 -35 -4 -19 -10 -35 -14 -35 -4 0 -14 -20 -21
-45 -7 -25 -17 -45 -21 -45 -4 0 -13 -20 -20 -45 -7 -25 -16 -45 -20 -45 -4 0
-14 -15 -21 -32 -7 -18 -17 -37 -21 -43 -5 -5 -17 -21 -28 -34 -11 -13 -20
-29 -20 -35 0 -6 -12 -22 -25 -35 -14 -13 -25 -28 -25 -35 0 -6 -13 -20 -30
-29 -16 -10 -30 -24 -30 -32 0 -7 -21 -27 -47 -44 -27 -16 -55 -36 -63 -44 -8
-7 -37 -24 -65 -37 -27 -14 -52 -27 -55 -30 -7 -9 -96 -36 -165 -51 -33 -7
-62 -16 -65 -19 -9 -13 -246 -30 -402 -30 -166 0 -331 15 -336 30 -2 6 -16 10
-30 11 -41 0 -106 30 -152 69 -23 19 -45 37 -49 40 -4 3 -13 20 -20 38 -8 17
-17 32 -21 32 -4 0 -11 15 -14 34 -4 19 -11 36 -15 38 -27 10 -31 227 -31
1670 0 1433 4 1631 30 1648 4 3 11 20 15 38 3 17 10 32 15 32 4 0 11 12 14 26
9 33 73 96 117 114 19 8 36 17 39 20 9 12 101 31 181 37 75 6 80 7 86 32 3 14
10 29 16 32 5 4 12 73 14 155 l6 149 -1017 0 -1016 0 0 -67z"/>
<path d="M486 4703 c-3 -60 -8 -174 -12 -255 -3 -82 -9 -148 -14 -148 -4 0
-10 -48 -14 -107 -4 -59 -10 -110 -15 -113 -4 -3 -13 -61 -20 -130 -7 -69 -16
-127 -20 -130 -9 -6 -31 -169 -25 -185 11 -28 188 -62 349 -67 l100 -3 3 28
c2 15 7 27 11 27 4 0 13 38 20 85 7 47 17 85 21 85 5 0 14 32 21 70 7 39 16
70 20 70 5 0 11 16 15 35 3 19 10 35 14 35 4 0 13 18 20 40 7 22 16 40 20 40
4 0 14 15 21 33 7 17 26 44 41 59 16 15 28 31 28 36 0 11 84 72 99 72 6 0 11
4 11 10 0 9 80 50 99 50 5 0 16 6 23 13 33 33 257 59 468 55 l155 -3 0 -1754
c0 -1395 -3 -1755 -13 -1759 -6 -2 -12 -14 -12 -27 0 -34 -22 -125 -31 -125
-4 0 -10 -12 -14 -27 -9 -39 -106 -127 -155 -142 -22 -6 -40 -16 -40 -20 0
-11 -105 -31 -245 -45 l-110 -11 -9 -60 c-5 -33 -13 -62 -17 -65 -4 -3 -10
-58 -14 -123 l-8 -119 204 8 c266 10 1538 10 1787 0 l192 -8 0 111 c0 67 -4
111 -10 111 -5 0 -10 14 -10 31 0 16 -5 50 -11 73 l-11 44 -91 7 c-108 8 -231
32 -235 45 -2 6 -10 10 -18 10 -47 0 -159 90 -170 136 -3 13 -10 24 -14 24 -8
0 -30 100 -30 141 0 15 -6 29 -12 31 -10 4 -14 367 -16 1763 l-3 1758 238 -6
c236 -6 363 -21 371 -46 2 -6 11 -11 21 -11 24 0 121 -48 121 -60 0 -6 7 -10
15 -10 20 0 135 -118 135 -139 0 -6 4 -11 9 -11 5 0 15 -16 22 -35 7 -19 16
-35 21 -35 4 0 13 -19 20 -42 6 -24 16 -46 20 -49 5 -3 14 -33 20 -67 6 -34
15 -62 19 -62 4 0 11 -29 14 -65 4 -36 11 -65 15 -65 4 0 10 -31 12 -69 2 -39
7 -73 10 -77 12 -11 268 14 356 36 46 11 90 26 98 34 15 16 19 56 5 56 -5 0
-12 47 -16 105 -4 58 -10 105 -14 105 -8 0 -31 294 -31 388 0 28 -4 52 -10 52
-6 0 -10 85 -10 235 0 225 -1 235 -19 235 -11 0 -21 -6 -24 -12 -6 -19 -3698
-19 -3705 0 -2 6 -10 12 -17 12 -9 0 -14 -29 -19 -107z"/>
<path d="M4453 4498 c4 -67 12 -124 17 -126 6 -2 10 -14 10 -27 0 -12 3 -36 6
-53 6 -29 9 -30 73 -37 88 -9 203 -33 210 -43 3 -5 23 -17 44 -27 20 -9 47
-29 60 -42 12 -14 30 -32 40 -41 9 -9 17 -24 17 -34 0 -9 6 -23 14 -30 7 -8
17 -34 21 -59 4 -24 13 -47 19 -51 16 -10 16 -3106 0 -3116 -6 -4 -14 -25 -17
-46 -4 -22 -10 -42 -15 -45 -5 -3 -12 -19 -16 -34 -3 -15 -15 -35 -26 -45 -11
-9 -20 -22 -20 -28 0 -7 -17 -23 -37 -35 -21 -13 -40 -26 -43 -30 -11 -15
-153 -48 -235 -55 l-84 -7 -7 -46 c-4 -25 -11 -48 -15 -51 -5 -3 -12 -63 -15
-134 l-7 -128 194 8 c254 10 1430 10 1677 0 l192 -8 0 56 c0 31 -4 56 -8 56
-5 0 -12 44 -15 97 -4 54 -11 99 -17 101 -5 2 -10 15 -10 28 0 22 -4 24 -42
24 -38 0 -143 17 -231 36 -16 4 -31 13 -34 20 -3 8 -10 14 -15 14 -15 0 -88
54 -88 66 0 5 -8 19 -18 30 -19 20 -42 88 -42 122 0 11 -6 22 -12 24 -10 4
-14 158 -16 717 l-3 712 27 -23 c15 -13 40 -35 56 -50 16 -16 40 -35 53 -44
14 -9 25 -23 25 -30 0 -8 4 -14 9 -14 12 0 291 -276 291 -287 0 -5 14 -17 30
-28 16 -11 30 -24 30 -28 0 -4 20 -28 45 -54 25 -25 45 -48 45 -52 0 -4 11
-14 25 -21 14 -7 25 -18 25 -23 0 -6 11 -22 24 -36 79 -84 96 -103 96 -109 0
-4 16 -22 35 -39 19 -18 35 -36 35 -41 0 -5 16 -22 35 -39 19 -17 35 -35 35
-40 0 -5 12 -23 28 -40 15 -17 36 -43 47 -57 11 -15 37 -45 58 -68 20 -23 37
-46 37 -50 0 -5 14 -22 30 -38 17 -16 30 -34 30 -39 0 -6 9 -15 19 -21 11 -5
23 -20 26 -31 4 -12 20 -35 36 -50 16 -16 29 -32 29 -36 0 -4 12 -19 25 -32
14 -13 25 -27 25 -32 0 -5 14 -23 30 -39 17 -16 30 -34 30 -40 0 -6 15 -25 33
-43 17 -18 38 -45 46 -60 8 -15 18 -27 23 -27 4 0 8 -6 8 -12 0 -7 10 -25 23
-40 12 -14 29 -36 37 -49 8 -12 22 -29 30 -38 8 -9 21 -29 27 -44 7 -15 17
-27 22 -27 5 0 15 -16 21 -35 6 -19 16 -35 21 -35 5 0 13 -8 16 -17 7 -18 16
-31 43 -62 9 -9 22 -31 29 -49 7 -18 17 -32 22 -32 5 0 9 -7 9 -15 0 -11 13
-15 54 -15 30 0 56 4 58 9 4 11 450 29 951 37 335 6 357 7 357 24 0 10 4 20 9
22 12 4 31 116 31 186 0 28 5 52 10 52 6 0 10 15 10 34 l0 34 -77 6 c-96 9
-246 35 -253 45 -3 4 -42 18 -88 31 -45 12 -86 28 -90 34 -4 6 -34 25 -67 43
-33 17 -77 46 -98 65 -34 28 -169 155 -189 176 -27 28 -97 106 -116 129 -54
66 -89 107 -119 139 -18 19 -33 39 -33 43 0 5 -11 19 -25 32 -13 13 -25 29
-25 34 0 6 -16 23 -35 39 -19 16 -35 34 -35 39 0 5 -16 24 -35 43 -19 18 -35
37 -35 41 0 5 -17 27 -37 50 -62 68 -93 105 -93 112 0 4 -11 14 -25 21 -14 7
-25 19 -25 26 0 7 -13 25 -30 41 -17 15 -30 33 -30 39 0 6 -11 16 -24 23 -13
7 -30 25 -37 38 -8 14 -31 44 -51 66 -21 21 -38 43 -38 47 0 3 -11 13 -25 20
-14 7 -25 18 -25 23 0 10 -25 39 -92 106 -21 21 -38 41 -38 44 0 4 -31 38 -70
77 -38 39 -70 74 -70 79 0 5 -16 19 -35 32 -19 13 -35 29 -35 35 0 7 -11 19
-25 28 -14 9 -25 23 -25 31 0 8 -4 15 -8 15 -9 0 -91 80 -173 168 -25 27 -60
60 -78 72 -17 13 -31 30 -31 37 0 7 -9 17 -20 23 -18 10 -15 15 45 74 35 35
80 76 99 91 20 15 36 32 36 39 0 6 17 22 37 36 37 25 113 98 113 109 0 3 21
20 45 36 25 17 45 35 45 42 0 6 15 22 33 34 17 13 59 50 93 84 33 33 72 70 85
81 13 12 29 28 35 35 6 8 33 32 59 54 27 22 53 46 59 54 6 7 24 25 40 40 16
14 55 52 87 83 32 32 70 65 83 74 14 8 28 23 31 32 3 10 21 28 41 42 20 13 67
54 104 90 71 69 119 110 127 110 7 0 77 53 88 67 11 14 71 50 98 59 9 4 17 10
17 15 0 5 26 22 58 37 31 15 63 32 70 39 7 7 45 22 85 34 40 12 74 25 78 30 5
8 206 45 279 51 26 2 36 8 39 23 2 11 7 23 12 26 5 3 12 29 16 57 3 29 10 52
14 52 5 0 9 46 9 101 l0 102 -77 -6 c-159 -13 -988 -18 -1283 -9 -168 6 -306
9 -308 8 -6 -7 19 -291 27 -295 5 -4 11 -17 12 -31 3 -18 11 -26 29 -28 85
-10 128 -25 164 -57 l38 -34 -4 -69 c-2 -48 -9 -74 -21 -86 -9 -10 -17 -24
-17 -32 0 -8 -4 -14 -9 -14 -5 0 -13 -9 -16 -21 -4 -11 -22 -36 -41 -56 -19
-19 -34 -37 -34 -40 0 -2 -30 -32 -66 -66 -36 -34 -94 -89 -128 -122 -34 -33
-78 -71 -99 -85 -20 -14 -37 -30 -37 -37 0 -6 -14 -22 -31 -34 -17 -12 -41
-31 -53 -43 -12 -11 -33 -31 -47 -43 -13 -13 -31 -31 -40 -40 -9 -10 -38 -36
-64 -58 -26 -22 -78 -70 -116 -107 -38 -37 -82 -75 -99 -84 -16 -10 -30 -23
-30 -28 0 -12 -71 -77 -118 -109 -17 -12 -34 -29 -37 -39 -3 -9 -18 -24 -33
-34 -15 -9 -36 -27 -48 -38 -11 -12 -34 -33 -50 -48 -16 -14 -33 -31 -39 -37
-24 -27 -102 -94 -127 -109 -16 -9 -28 -21 -28 -26 0 -11 -85 -91 -113 -107
-17 -10 -18 18 -15 692 2 551 6 703 16 707 6 2 12 14 12 26 0 27 19 85 34 104
6 7 18 21 27 31 8 10 18 25 22 34 3 9 23 23 44 32 20 9 40 20 43 26 8 12 124
37 215 45 73 7 85 14 85 51 0 12 5 23 10 25 6 2 14 45 17 96 3 50 10 92 14 92
5 0 9 23 9 51 l0 51 -187 -8 c-242 -11 -1498 -11 -1712 0 l-164 8 6 -124z"/>
</g>
</svg>
