<svg id="Layer_1" data-name="Layer 1" xmlns="http://www.w3.org/2000/svg" width="1920" height="1080" viewBox="0 0 1920 1080"><defs><style>.cls-1{fill:#3f2861;}.cls-2{fill:#ed7936;}.cls-3{fill:#f4943a;}.cls-4{fill:#cc5535;}.cls-5{fill:#413173;}.cls-6{fill:#705763;}.cls-7{fill:#5971b4;}.cls-8{fill:#321240;}.cls-9{fill:#779db4;}.cls-10{fill:#30433b;}.cls-11{fill:#f4a73a;}</style></defs><path class="cls-1" d="M1048,756.13a31.25,31.25,0,0,0-1.12-3.65c-3.57-9.56-10.84-15.79-10.28-16.1s7.08,6.28,8.51,5.68c1.13-.48-1.46-5.29-2.57-7.34-2.35-4.35-3.51-5-5.17-8.45s-3.18-8.35-1.56-8.93,5.15,2.87,5.61,2.58-4.6-5-3.58-5.75c.55-.42,2.55.62,3.11.15s-.88-2-1.16-2.35c-3.87-4.28-6.08-11.21-4.92-11.71s6.75,5.24,7.29,5c.7-.37-8.21-10.35-7.76-10.57s5.68,5.72,6.62,5.33c.68-.28-1.06-3.87-3.11-6.78-1.79-2.55-3.82-4.58-3.49-4.77s3,2.2,3.88,1.83c.64-.28-.14-2-.27-2.31-1-2.34-2.51-8.26-4.62-22.84-3.82,13.67-6.39,18.62-8.14,20.23-.2.19-1.52,1.37-1,1.92.65.75,4.07-.31,4.45.22.52.73-5.23,3.41-4.77,4,.32.43,3.31-.76,4-.12.38.33.21,1.23-4.94,6.3-2.22,2.17-4.05,3.84-6.75,6.54-3.4,3.38-3.56,3.8-3.43,3.89.57.4,7.64-4.53,7.93-4.32s-12.08,9.14-10.74,10.35c.59.53,3.41-.84,4.16-.2,1.36,1.16-6.11,7.17-5.49,7.59s5.86-3.68,6.5-3.28-4,5.64-7.86,9.44a51.43,51.43,0,0,0-5.86,6.58c-1.37,1.86-2.73,3.74-2.1,4.15,1.37.9,10.66-6.14,12-5.29,1.06.68-4.1,5.38-8.63,13.66a54,54,0,0,0-3.2,6.88Z"/><path class="cls-1" d="M1040.39,753.12c.25-.78.62-1.89,1.16-3.2,3.43-8.33,8.87-13.37,8.54-13.69s-5.32,5.1-6.17,4.44c-.68-.52,1.57-4.65,2.53-6.41,2-3.73,2.85-4.2,4.33-7.21s3-7.27,2.06-7.92-3.67,2.18-3.93,1.88,3.56-4.13,3-4.9c-.31-.42-1.72.36-2-.1s.81-1.77,1-2c3-3.55,5.25-9.63,4.56-10.17s-5,4.2-5.3,3.9,6.52-8.67,6.26-8.9-4.35,4.7-4.91,4.28,1.14-3.41,2.81-5.87c1.45-2.15,3-3.82,2.82-4s-2.23,1.75-2.73,1.34.33-1.8.45-2c.94-2,2.59-7.25,5.67-20.22.86,12.62,2,17.28,2.89,18.87.11.18.82,1.34.44,1.8-.51.63-2.59-.6-2.9-.14-.42.61,3,3.48,2.61,4s-2-.94-2.59-.43c-.28.27-.28,1.1,2.46,6.07,1.17,2.13,2.16,3.78,3.6,6.42,1.79,3.32,1.85,3.71,1.75,3.78-.41.31-4.41-4.69-4.62-4.52s6.74,9.18,5.73,10.17c-.45.44-2.11-1-2.66-.5-1,.93,3.1,6.93,2.65,7.26s-3.35-3.77-3.82-3.46,1.93,5.4,4,9.12a45,45,0,0,1,3,6.39c.66,1.78,1.32,3.59.87,3.91-1,.7-6.18-6.38-7.15-5.71-.77.52,2,5.17,4,13a60.53,60.53,0,0,1,1.26,6.45Z"/><path class="cls-1" d="M1101.24,756.2c-.14-1-.37-2.39-.75-4.05-2.45-10.6-7.79-17.41-7.35-17.76s5.19,6.87,6.29,6.17c.87-.56-1-5.87-1.75-8.13-1.66-4.81-2.52-5.48-3.69-9.33s-2.18-9.25-.94-9.93,3.83,3.11,4.19,2.78-3.36-5.48-2.57-6.35c.43-.48,1.92.64,2.36.12s-.61-2.26-.82-2.6c-2.82-4.7-4.3-12.4-3.41-13s5,5.73,5.39,5.41-5.94-11.38-5.6-11.64,4.16,6.28,4.88,5.83c.53-.33-.7-4.3-2.17-7.51-1.29-2.8-2.78-5-2.52-5.26s2.24,2.41,2.89,2c.5-.33-.05-2.24-.14-2.57-.72-2.59-1.68-9.16-2.88-25.38-3.27,15.31-5.35,20.88-6.72,22.7-.16.21-1.19,1.55-.84,2.15.47.83,3.09-.42,3.37.17.37.81-4.06,3.9-3.73,4.57.23.47,2.53-.9,3.06-.21.28.36.13,1.37-3.92,7.12-1.74,2.46-3.17,4.35-5.3,7.41-2.66,3.83-2.8,4.3-2.7,4.4.42.43,5.92-5.19,6.13-5s-9.4,10.4-8.42,11.73c.43.59,2.61-1,3.16-.29,1,1.27-4.82,8.1-4.37,8.56s4.54-4.21,5-3.77-3.18,6.36-6.22,10.65a62.12,62.12,0,0,0-4.62,7.45c-1.08,2.1-2.17,4.22-1.7,4.67,1,1,8.25-7.05,9.25-6.12.79.74-3.25,6.08-6.91,15.38-1.26,3.21-2.1,5.93-2.61,7.73Z"/><path class="cls-1" d="M1091.67,754.14c.24-.78.63-1.89,1.17-3.2,3.49-8.33,9-13.37,8.69-13.69s-5.42,5.1-6.29,4.44c-.69-.52,1.6-4.65,2.57-6.41,2.07-3.73,2.9-4.2,4.41-7.2s3.09-7.27,2.09-7.92-3.74,2.18-4,1.88,3.62-4.13,3-4.9c-.32-.42-1.76.35-2.08-.11s.82-1.76,1-2c3.06-3.55,5.34-9.63,4.63-10.17s-5.07,4.19-5.4,3.9,6.64-8.67,6.38-8.9-4.43,4.7-5,4.27,1.15-3.4,2.85-5.86c1.48-2.15,3.06-3.82,2.87-4s-2.27,1.74-2.78,1.34.33-1.8.45-2.06c1-2,2.64-7.24,5.76-20.21.9,12.62,2,17.29,3,18.87.11.19.84,1.35.46,1.81-.52.63-2.65-.6-3-.15-.42.61,3,3.49,2.68,4s-2.1-1-2.65-.43c-.29.27-.28,1.09,2.52,6.07,1.2,2.13,2.21,3.78,3.67,6.42,1.84,3.32,1.9,3.71,1.8,3.78-.42.31-4.5-4.69-4.71-4.52s6.87,9.19,5.85,10.18c-.46.43-2.15-1-2.72-.51-1,.94,3.18,6.94,2.72,7.27s-3.43-3.78-3.9-3.47,2,5.4,4.07,9.12a44.3,44.3,0,0,1,3.08,6.4c.68,1.79,1.36,3.59.9,3.91-1,.7-6.31-6.38-7.3-5.72-.78.52,2.06,5.17,4.07,13a62.69,62.69,0,0,1,1.3,6.45Z"/><path class="cls-1" d="M985.59,760.32c.24-.78.62-1.89,1.15-3.2,3.44-8.33,8.87-13.38,8.54-13.69s-5.32,5.1-6.17,4.44c-.67-.52,1.57-4.65,2.53-6.41,2-3.73,2.85-4.2,4.34-7.21s3-7.27,2-7.92-3.67,2.18-3.93,1.88,3.56-4.13,3-4.9c-.31-.42-1.73.36-2-.1s.81-1.77,1-2c3-3.55,5.25-9.63,4.56-10.17s-5,4.2-5.3,3.9,6.52-8.67,6.26-8.9-4.34,4.7-4.91,4.28c-.41-.31,1.14-3.41,2.81-5.87,1.46-2.15,3-3.82,2.82-4s-2.23,1.74-2.73,1.34.33-1.8.45-2c1-2,2.6-7.25,5.67-20.22.87,12.62,1.95,17.28,2.89,18.87.11.18.82,1.34.45,1.8-.51.63-2.6-.6-2.91-.15-.42.62,3,3.49,2.62,4s-2.06-.94-2.6-.43c-.28.27-.28,1.1,2.46,6.07,1.17,2.13,2.16,3.78,3.6,6.42,1.79,3.32,1.85,3.71,1.76,3.78-.42.31-4.42-4.69-4.62-4.52s6.73,9.18,5.72,10.17c-.44.44-2.1-1-2.66-.5-1,.93,3.1,6.93,2.66,7.26s-3.36-3.77-3.83-3.46,1.93,5.4,4,9.12a43.87,43.87,0,0,1,3,6.39c.66,1.78,1.33,3.59.87,3.91-1,.7-6.18-6.38-7.15-5.71-.77.52,2,5.17,4,13a63.76,63.76,0,0,1,1.27,6.45Z"/><path class="cls-1" d="M991.63,757c-.13-.79-.33-1.94-.67-3.29-2.15-8.62-6.78-14.17-6.41-14.45s4.51,5.6,5.46,5c.75-.45-.86-4.77-1.54-6.62-1.46-3.9-2.2-4.45-3.22-7.59s-1.92-7.52-.85-8.06,3.32,2.53,3.62,2.26-2.91-4.46-2.23-5.17c.37-.38,1.66.53,2,.11s-.53-1.84-.71-2.12c-2.45-3.82-3.76-10.08-3-10.55s4.32,4.67,4.67,4.41-5.16-9.27-4.87-9.47,3.61,5.1,4.23,4.74c.45-.26-.62-3.5-1.9-6.11-1.12-2.28-2.41-4.09-2.19-4.27s1.94,2,2.5,1.61,0-1.82-.13-2.09c-.64-2.11-1.49-7.45-2.59-20.63-2.76,12.43-4.53,16.95-5.71,18.43-.13.17-1,1.25-.71,1.75.41.67,2.67-.34,2.9.14.33.66-3.48,3.16-3.19,3.71.2.38,2.18-.73,2.64-.17.24.3.11,1.12-3.36,5.78-1.49,2-2.71,3.53-4.54,6-2.28,3.11-2.39,3.49-2.31,3.57.37.35,5.08-4.21,5.26-4s-8.06,8.43-7.21,9.51c.38.48,2.24-.8,2.72-.23.87,1-4.13,6.57-3.73,7s3.9-3.41,4.31-3-2.72,5.16-5.32,8.64a46.8,46.8,0,0,0-4,6c-.93,1.71-1.85,3.43-1.45,3.79.88.79,7.09-5.7,8-4.94.68.59-2.78,4.92-5.91,12.48-1.07,2.6-1.78,4.81-2.22,6.27Z"/><path class="cls-1" d="M974.44,748.92c-.28-1-.72-2.47-1.38-4.18-4.22-10.94-11.77-17.74-11.25-18.13s7.37,6.87,8.71,6.07c1.07-.64-1.83-6.08-3.07-8.41-2.63-4.92-3.8-5.57-5.69-9.53s-3.74-9.54-2.21-10.32,5.24,3,5.66,2.64-4.86-5.52-3.94-6.48c.51-.53,2.54.56,3,0s-1-2.32-1.31-2.67c-4.1-4.75-6.79-12.71-5.7-13.37s7,5.69,7.48,5.33S956,678.31,956.4,678s6,6.31,6.86,5.8c.64-.38-1.33-4.46-3.55-7.73-1.94-2.85-4.08-5.09-3.77-5.34s3.13,2.38,3.92,1.89c.6-.37-.3-2.34-.45-2.68-1.19-2.67-3.09-9.48-6.28-26.37-2.64,16.21-4.75,22.16-6.33,24.15-.18.23-1.36,1.69-.86,2.31.7.83,3.94-.63,4.35,0,.56.82-4.82,4.32-4.33,5,.35.49,3.16-1.1,3.91-.4.4.36.3,1.42-4.31,7.68-2,2.68-3.63,4.75-6,8.08-3,4.17-3.16,4.67-3,4.77.59.42,7.08-5.8,7.37-5.57s-11,11.46-9.63,12.79c.62.58,3.25-1.2,4-.5,1.41,1.26-5.38,8.76-4.74,9.22s5.41-4.68,6.06-4.25-3.44,6.84-6.9,11.52a57.57,57.57,0,0,0-5.19,8.07c-1.18,2.27-2.36,4.55-1.71,5,1.4,1,9.88-7.87,11.26-7,1.09.72-3.56,6.55-7.32,16.51a75.83,75.83,0,0,0-2.57,8.24Z"/><path class="cls-1" d="M966.82,745.9c.18-.92.46-2.24.88-3.81,2.68-10,7.57-16.2,7.23-16.55s-4.77,6.31-5.65,5.59c-.7-.56,1.16-5.53,2-7.65,1.69-4.49,2.45-5.09,3.65-8.7s2.39-8.69,1.39-9.38-3.4,2.78-3.68,2.45,3.14-5.06,2.53-5.92c-.34-.47-1.65.53-2,0s.65-2.11.84-2.43c2.65-4.34,4.36-11.59,3.64-12.18s-4.52,5.23-4.85,4.91,5.67-10.56,5.4-10.81-3.86,5.77-4.44,5.32c-.42-.33.84-4.06,2.27-7,1.25-2.61,2.63-4.66,2.42-4.88s-2,2.19-2.54,1.75.18-2.13.27-2.43c.76-2.44,2-8.63,3.94-24,1.82,14.68,3.24,20.05,4.28,21.85.12.2.9,1.51.57,2.07-.44.77-2.57-.53-2.83,0-.36.75,3.17,3.88,2.85,4.5-.22.44-2.07-1-2.55-.33-.26.33-.19,1.29,2.86,6.92,1.31,2.42,2.4,4.27,4,7.27,2,3.75,2.09,4.21,2,4.3-.37.39-4.65-5.19-4.84-5s7.27,10.29,6.36,11.5c-.4.54-2.12-1-2.63-.41-.91,1.16,3.56,7.9,3.15,8.31s-3.55-4.19-4-3.79,2.29,6.18,4.58,10.39a55.86,55.86,0,0,1,3.43,7.27c.79,2,1.57,4.1,1.15,4.5-.91.88-6.5-7-7.4-6.2-.7.66,2.37,5.91,4.88,14.9.87,3.1,1.41,5.72,1.74,7.45Z"/><path class="cls-1" d="M1026.22,745.54c-.22-1.14-.55-2.76-1-4.68-3.21-12.22-8.94-19.83-8.54-20.26s5.59,7.69,6.6,6.8c.81-.71-1.4-6.8-2.34-9.39-2-5.5-2.88-6.23-4.31-10.66s-2.85-10.66-1.69-11.53,4,3.38,4.28,3-3.68-6.18-3-7.25c.39-.58,1.92.63,2.31,0s-.77-2.6-1-3c-3.11-5.3-5.16-14.19-4.34-14.93s5.29,6.37,5.67,6-6.66-12.91-6.35-13.23,4.53,7.06,5.19,6.49c.49-.42-1-5-2.69-8.63-1.47-3.19-3.1-5.7-2.86-6s2.37,2.66,3,2.11c.45-.41-.23-2.61-.35-3-.9-3-2.35-10.6-4.78-29.46-2,18.09-3.57,24.73-4.76,27-.14.25-1,1.88-.65,2.57.53.93,3-.7,3.29,0,.42.91-3.64,4.81-3.27,5.57.27.54,2.39-1.22,3-.44.3.4.23,1.59-3.25,8.56-1.5,3-2.74,5.29-4.57,9-2.29,4.65-2.38,5.2-2.28,5.31.44.48,5.34-6.45,5.56-6.19s-8.32,12.76-7.26,14.25c.47.66,2.45-1.33,3-.55,1.06,1.42-4.06,9.77-3.58,10.28s4.09-5.21,4.58-4.73-2.59,7.64-5.21,12.85a73.89,73.89,0,0,0-3.91,9c-.89,2.52-1.78,5.07-1.29,5.56,1.06,1.07,7.47-8.76,8.52-7.74.82.8-2.69,7.31-5.52,18.41-1,3.83-1.58,7.06-1.93,9.2Z"/><path class="cls-1" d="M1016.75,743.76c.18-.93.46-2.25.89-3.81,2.74-10,7.72-16.2,7.37-16.56s-4.86,6.31-5.76,5.6c-.71-.57,1.18-5.54,2-7.66,1.72-4.49,2.5-5.09,3.73-8.7s2.43-8.69,1.41-9.38-3.47,2.78-3.75,2.45,3.2-5.06,2.58-5.92c-.34-.47-1.69.53-2,0s.66-2.12.86-2.44c2.7-4.34,4.44-11.59,3.71-12.17s-4.61,5.22-4.94,4.9,5.77-10.56,5.5-10.81-3.94,5.78-4.53,5.32c-.43-.33.86-4.05,2.31-7,1.28-2.6,2.69-4.66,2.48-4.88s-2.07,2.19-2.6,1.75.19-2.12.28-2.43c.78-2.43,2-8.63,4-24,1.86,14.68,3.3,20.05,4.36,21.85.12.2.92,1.51.59,2.08-.46.76-2.62-.54-2.9,0-.36.75,3.24,3.88,2.91,4.5-.22.44-2.1-1-2.6-.33-.26.33-.19,1.29,2.92,6.92,1.33,2.42,2.44,4.27,4.08,7.27,2,3.75,2.13,4.21,2,4.3-.39.39-4.75-5.19-4.94-5s7.41,10.28,6.49,11.5c-.41.54-2.17-1-2.68-.41-.94,1.16,3.63,7.9,3.21,8.31s-3.63-4.19-4.06-3.79,2.33,6.18,4.66,10.39a55,55,0,0,1,3.5,7.27c.8,2,1.6,4.1,1.18,4.5-.93.88-6.63-7-7.55-6.2-.72.66,2.42,5.91,5,14.9.88,3.1,1.43,5.72,1.76,7.45Z"/><path class="cls-1" d="M914.11,757.88c.17-.92.45-2.25.87-3.81,2.69-10,7.58-16.2,7.23-16.55s-4.77,6.3-5.65,5.59c-.7-.57,1.16-5.54,2-7.65,1.68-4.49,2.44-5.1,3.65-8.71s2.38-8.68,1.38-9.38-3.4,2.79-3.68,2.45,3.14-5.05,2.53-5.91c-.33-.47-1.65.53-2,0s.64-2.12.84-2.44c2.64-4.34,4.35-11.58,3.64-12.17s-4.52,5.23-4.85,4.9,5.66-10.55,5.39-10.81-3.86,5.78-4.44,5.32c-.42-.33.84-4.05,2.27-7,1.25-2.6,2.63-4.65,2.43-4.88s-2,2.19-2.55,1.76.18-2.13.28-2.44c.76-2.43,2-8.63,3.93-24,1.83,14.68,3.24,20.06,4.28,21.85.12.21.91,1.52.58,2.08-.45.76-2.57-.53-2.84,0-.36.74,3.17,3.87,2.86,4.49-.23.44-2.07-1-2.56-.33-.25.33-.19,1.3,2.87,6.93,1.3,2.41,2.39,4.27,4,7.27,2,3.75,2.1,4.2,2,4.29-.38.39-4.66-5.19-4.84-5s7.26,10.28,6.36,11.5c-.4.54-2.13-1-2.63-.41-.92,1.16,3.56,7.89,3.15,8.31s-3.56-4.19-4-3.8,2.29,6.18,4.58,10.39a57.22,57.22,0,0,1,3.43,7.27c.79,2,1.58,4.11,1.16,4.51-.91.88-6.5-7-7.4-6.2-.71.66,2.36,5.9,4.88,14.89.87,3.11,1.41,5.72,1.73,7.46Z"/><path class="cls-1" d="M919.72,753.55c-.18-.92-.47-2.24-.91-3.8-2.76-9.92-7.7-16.1-7.36-16.46s4.82,6.25,5.7,5.52c.69-.57-1.21-5.52-2-7.62-1.72-4.47-2.48-5.07-3.72-8.66s-2.45-8.66-1.45-9.37,3.42,2.75,3.69,2.41-3.18-5-2.57-5.89c.33-.47,1.65.51,2,0s-.66-2.11-.86-2.42c-2.68-4.31-4.44-11.54-3.73-12.13s4.56,5.17,4.88,4.84-5.74-10.48-5.47-10.74,3.9,5.73,4.48,5.26c.42-.33-.88-4-2.33-7-1.27-2.59-2.66-4.62-2.46-4.85s2,2.17,2.56,1.72-.2-2.12-.3-2.42c-.78-2.43-2-8.61-4.12-23.94-1.71,14.7-3.09,20.1-4.11,21.9-.12.21-.89,1.53-.56,2.09.45.76,2.57-.56,2.84,0,.36.74-3.14,3.91-2.82,4.53.23.44,2.06-1,2.55-.36.26.33.2,1.29-2.81,7-1.29,2.43-2.36,4.3-3.94,7.32-2,3.78-2.06,4.23-2,4.32.38.38,4.61-5.25,4.8-5s-7.18,10.37-6.27,11.57c.41.54,2.12-1.08,2.63-.44.92,1.15-3.5,7.94-3.09,8.35s3.53-4.23,4-3.84-2.24,6.2-4.5,10.44a56.32,56.32,0,0,0-3.37,7.31c-.77,2-1.54,4.12-1.12,4.52.92.87,6.45-7.12,7.35-6.29.71.65-2.32,5.93-4.76,15-.84,3.11-1.36,5.73-1.67,7.47Z"/><path class="cls-2" d="M926,744c-33.84-54.13-67.58-83.76-93.06-101-11.91-8-27.64-17.2-49.45-35.71-18.68-15.85-70.36-68-53-50.81h0L668.44,484l-52.69-33.86L566.21,406l-83.76-22V329l-17.18-145L399.33,158l-93.54-30.8h-164L81.61,167.36-21,205.6-22,1071l816.53,9Z"/><path class="cls-2" d="M1931,356l-102-32.34L1707,257l-67-59-85.48-30.64L1500,184l-38,59v78.87l9,56.13-22.62,14.85L1439,399l-32,31-9,34-27.24,109V685.73L1336.63,1113H1931Z"/><path class="cls-3" d="M1570,185c5.5,1.76,13.91,4.75,29,12,6.37,3.06,14.58,7,25,13a341.16,341.16,0,0,1,44,30c23.56,19,21.76,23.07,40,35,17.7,11.57,28.61,13.81,28,18-.92,6.27-26.4,8.9-48,7-18.11-1.6-19.09-5.12-43-10-28.82-5.88-34.25-2.16-66-9-24.92-5.37-32.46-10-38-15-2.66-2.4-14.92-13.46-17-30-1.07-8.52,1.82-8.44,2-27,.1-10-.71-13.53,2-18,4.61-7.6,14.22-9.46,17-10S1553.58,179.73,1570,185Z"/><path class="cls-3" d="M1574,324c-4.56-7.67-13-21.89-9-27,3.55-4.54,15.17.38,31,5,10.74,3.13,30.82,6.09,71,12s44.82,4.26,58,11c6.93,3.54,23,11.74,34,29,.38.6.21.36,16,35,3.45,7.58,7.15,15.58,14,25,4.59,6.32,6.35,7.42,9,11,12.16,16.43,2.91,30.73,9,43,13,26.15,77.63,6.83,94,35,.85,1.47,6.58,11.32,3,16-2.61,3.42-9.1,2.64-13,2-67.3-11.07-98-41-98-41a282.2,282.2,0,0,1-40-49c-7.44-12.2-12.22-22.7-24-27s-16.14,2.93-32,0c-14-2.59-28.17-11.48-36-24-6.8-10.87-2.47-14.32-9-22-9-10.62-24.74-12.77-41-15-13.16-1.8-20.42-.83-28-7C1579.37,333,1577.55,330,1574,324Z"/><path class="cls-3" d="M1790,381c0-4.59,4.4-9.43,9-11,14.21-4.86,38.48,18.53,52,41,12.81,21.3,11.93,35.07,24,39,11.3,3.68,19.62-5.93,30,0,7.32,4.19,9.87,12.8,12,20,3.65,12.35,2.73,25.44,0,26-3.26.66-5.26-17.26-16-20-6.29-1.6-8.5,3.81-19,5-8.51,1-20.51-1.06-27-9-3.77-4.61-4.58-9.87-6-19-1.71-11-.41-17.61-2-18-3-.74-10,22.68-13,22-2.6-.6.48-19.2-4-45-1.56-9-3.11-13.48-7-16-6.3-4.07-12.38,1.17-22-3C1796.62,391.1,1790,386.6,1790,381Z"/><path class="cls-3" d="M1541,435c12.63-4.56,26.88,13.88,45,26,9.14,6.11,26.76,11.41,62,22,22.68,6.82,30.82,8.11,35,16,5.36,10.13-2.08,19.26-8,39-14.23,47.48,7.31,66.51-11,92-12,16.75-26.32,15.48-28,29-2.14,17.26,20.24,26.67,17,46-1.9,11.32-11.73,21-14,20-1.27-.56-.08-4.41,0-10,.09-6-1.14-12-7-25-11.33-25.17-16-23.49-18-35-2.55-14.73,3.57-26.35,0-28s-10.08,10.45-15,9c-7.92-2.34-.13-36.51-7-39-7.69-2.78-29.92,35.44-51,72-17.19,29.8-22.43,41.11-27,40-7.13-1.73-8.67-32.75-2-60,7-28.48,24.41-59,29-67,6.22-10.88,10.79-17.39,13-29s-.25-16.4,3-34c1.78-9.63,3-11,3-17,0-3.47-.11-20.36-9-26-13-8.26-33.1,15.17-46,7-5.71-3.61-2.89-8.9-12-26-5.78-10.85-8-10.81-14-21-9.34-15.95-15.9-36.65-11-40,4.48-3.06,15.63,10.36,24,6,4.49-2.34,4.89-8.09,8-8s3.27,6.11,8,11c7.83,8.11,18,2.4,23,9,5.58,7.34-2.5,20.22,2,23C1535.16,438.33,1538.12,436,1541,435Z"/><path class="cls-3" d="M1701,452c-2.11,2.36,15.5,14.61,20,38,.87,4.53,2.07,11.15,0,19-2.33,8.83-6.58,10.8-14,23-2.55,4.19-8,13.23-11,24-3,10.5-2.56,18.85-2,29,1.51,27.2,9.79,39.7,2,49-2.61,3.11-3.74,2-8,6-4.89,4.64-9.81,12.25-12,28-1,7.34-2.31,22.62,8,62,8.54,32.6,13.13,36.3,17,37,6.41,1.16,13-5.54,16-10,7.54-11.37,3-26,0-36-5.12-16.72-10.46-16.83-13-28-3.24-14.22,3.92-20.64,12-46,8.44-26.5,10.2-49.54,11-60,2.08-27.22-.94-46.19,3-47,4.5-.93,12.1,23.06,16,22,3.42-.93-2.07-19.46,6-41,2.59-6.92,5.82-15.54,11-16,8.69-.76,9.74,22.64,30,40,17.86,15.3,39,15.92,44,16,14.4.22,28.15-4.29,28-7-.19-3.39-21.85,2-41-11-5.37-3.65-20.65-15.59-27-35-2.61-8-2.3-12.88-7-16-5.16-3.42-12.68-2.24-27,0-8.8,1.38-10.64,2.41-14,1-4.64-1.94-5.54-5.75-12-14a130.93,130.93,0,0,0-10-11C1716.71,457.81,1702.81,450,1701,452Z"/><path class="cls-4" d="M1520,219c-2.72.58-1.75,7.4-6,17-2.76,6.23-4.07,5.41-6,10-2,4.88-2,9.33,2,31,2.92,15.65,3.78,17.93,5,18,2.75.17,6.4-10.85,8-18,1.88-8.43,1.15-12.59,4-14,3.43-1.7,9.73,1.73,10,5s-5.4,4.75-5,7c.81,4.55,24.88,3.05,25,5,0,.67-2.71,1.94-4,1-2.61-1.9,4.63-10.11,2-18-1.42-4.27-4.09-3.51-15-14-4.42-4.25-6.65-6.42-8-9-2.77-5.29-1.69-8.25-5-14C1526,224.33,1522.65,218.43,1520,219Z"/><path class="cls-4" d="M1582,327c1.39,0,.76,5.12,5,10a20.91,20.91,0,0,0,10,6,26.66,26.66,0,0,0,10,1c18.69-1.35,29.81-2.15,36,3,1.38,1.15,3.27,7.11,7,19,4.64,14.79,5.4,19.17,10,23,2.45,2,6,3,13,5,14.44,4.05,20.31,2.49,26,8,2.11,2,5.12,6,4,8-1.39,2.54-8.1.22-26-2-10.46-1.3-10.84-.83-16-2-4.61-1-21.24-4.81-22-12-.33-3.11,2.44-5.66,2-6-1-.82-11.77,17.48-21,16-6.91-1.1-11.51-13-13-19-2.21-8.81.19-13.26-4-18-2.42-2.74-5.6-3.95-11-6-7.74-2.94-10.74-2.05-13-5-.71-.93-1.63-2.61-1-11C1578.43,339.29,1579.85,327,1582,327Z"/><path class="cls-4" d="M1475.68,429c-.89-.22-5.68,6.39-5.68,15,0,2.85.52,5.67,4.54,15,3.46,8,6.08,12.94,9.09,19,5.73,11.58,8.6,17.38,9.08,20,1.77,9.66-3.19,11.45-8,30-3.44,13.41-6.15,24.72,0,35,3.14,5.24,5,4.22,9.09,10,10.82,15.29,5.07,32.63,8,33,1.61.21,3-5.29,10.22-17,2-3.19,2.94-4.55,4.54-7,.72-1.11,9.63-14.83,14.76-27,7.72-18.3,6.36-31.79,10.22-32,3.09-.17,5,8.36,8,8,4.08-.49,5.68-17,5.68-17l1.59-4.68c3.44-10.07,5.44-11.31,5.22-15.32-.19-3.55-1.82-6.32-3.4-9-1.93-3.27-3.24-5.49-5.68-7-10.46-6.48-31.94,6-33.65,7a3.77,3.77,0,0,1-1.55,1c-3.63.82-9.09-6-9.09-6s-5.72-7.52-11.36-16c-5.13-7.73-7.69-11.59-8.43-13.74A7.88,7.88,0,0,0,1487,447c-3.09-3.27-7.42-1.87-10.22-4C1472,439.36,1476.75,429.27,1475.68,429Z"/><path class="cls-4" d="M1774,374c-6.88-2.88-10.25-9.53-11-11-3.6-7.11-1.54-11.62-6-16-3.39-3.34-7.13-3.23-7-4,.26-1.57,15.84-3,31,4,5.36,2.46,5.3,3.51,12,7a100.19,100.19,0,0,0,26,9c21.32,5,24.59,12.52,43,18,36.27,10.8,60.45-7.5,69,5,2.16,3.16,1.44,11.77,0,29-1.5,18-3.71,19.71-5,20-4.15.94-6.43-11.29-14-13-13.33-3-25.64,30.57-37,28-9.06-2.05-8.85-25.12-24-47a91.25,91.25,0,0,0-9-11c-2.09-2.14-4.54-4.43-16-13-14-10.47-15.42-10.86-17-11-6.39-.57-7.29,3.6-19,6C1784.18,375.19,1779.26,376.2,1774,374Z"/><path class="cls-4" d="M1483,329c4.9,1.17-.51,21.54,9,27,4.92,2.82,8.38-1.47,15,0,12.09,2.69,10.77,19.27,24,35,15.93,18.94,35.24,15.56,38,30,1.44,7.54-2.22,16.85-7,18-4.56,1.1-10.27-5.19-11-6-4.6-5.08-4.67-9.88-7-10-3.3-.18-6,9.32-7,9s3.82-9,1-17c-2-5.6-5.56-4.81-14-14-4.16-4.53-4-5.49-12-15-6.74-8-8.22-9-10-9-6.38-.14-9.11,11.67-14,11-4.26-.58-6.36-10.1-7-13-2.33-10.58,1.43-14.23-2-22-2.2-5-4.45-5.07-5-9C1473,336.62,1479.67,328.21,1483,329Z"/><path class="cls-5" d="M1498.91,184c.61.22,1.19,1,1,12-.14,11.51-.84,15.7-1,22-.61,19,4.4,22.55,0,30-3,5-5.27,3.45-11.54,11-3.74,4.51-9,10.82-9.44,19-.31,5.49,1.92,4.83,5.25,19,2.48,10.57,2.22,15.15,0,19a22.56,22.56,0,0,1-4.2,5c-5.09,4.8-7.82,3.82-10.49,7-3.76,4.47-3.74,12.8,0,17,1.82,2.05,3.74,2.23,5.25,5,1.35,2.48,1.18,4.85,1,7-.72,11.31-1.06,17,0,19,2.49,4.67,7,4.31,7.35,8,.31,3.26-2.77,8-7.35,8-1.88,0-3.73-2.05-7.34-6-2.52-2.76-4.16-3.39-4.2-5,0-1.38.91-1.88,2.1-4,1.05-1.86,1.4-3.57,2.1-7a42.63,42.63,0,0,0,1-9c-.1-5.82-2.31-8.32-4.2-14-.93-2.83-.48-2.49-2.09-16-1.81-15.06-2.67-18-2.1-25,.31-3.8.58-3.11,1.05-8,.45-4.69.64-10,0-21-.87-14.66-2.44-14.38-2.1-23,.29-7.47,1.54-12.16,3.15-16a40.72,40.72,0,0,1,5.24-9C1481.65,210.07,1494.36,182.34,1498.91,184Z"/><path class="cls-2" d="M1448,392c2.57,1.49-1,8.27,2,21,1,4.4,1.72,4.74,2,8,.34,4.05-.37,7.72-4,17-3.36,8.58-6.43,14.84-7,16-4.83,9.8-6.86,12.69-9,17-5.84,11.77-6.72,22.41-8,38-1.59,19.34,1.17,22.14-3,30-.64,1.21-7.75,14.15-21,17-9.66,2.08-13.6-3.14-18,0-5.06,3.61-3.77,15.45-1,39,1.15,9.8,2.07,14.4,1,22-1.17,8.37-4.68,19.91-9,20-3.15.07-5.59-6-6-7-2.76-6.85-1-13.17,0-18,2.83-13.7-1-13.14,1-33,.92-9.32,2.45-16.41,5-27,8.92-37.07,11.83-40.09,17-63,7.62-33.74,4-38.91,13-53,2.87-4.48,9.92-12,24-27C1438.72,396.51,1445.28,390.42,1448,392Z"/><path class="cls-6" d="M1413,496c-9.25,14.23-10,17.2-9,20,2.1,5.89,10.86,8.14,19,10.23,7.48,1.92,13.61,2.37,16,2.06,6.1-.79,20.15-2.62,31-2.06,6.8.35,3.69,1.19,25,5.16,15.16,2.82,17.57,2.54,24,5.15,10.25,4.16,15.78,9.59,17,8.26s-2.28-7.57-7-12.38c-6.7-6.83-13-7.55-37-13.41-26.5-6.48-25.34-7.19-31-7.22-18-.11-20.26-.84-23-2.07-2-.9-6-2.68-8-6.72-1.6-3.25-.94-6,0-13,1.47-10.94,2.21-16.42,1-17C1428.69,471.88,1421.53,482.89,1413,496Z"/><path class="cls-6" d="M1555,540c5.28-3.42,10.77-3.28,18-3,16.55.64,24.82,1,25,1,21.16,5.27,23.24,23.43,46,30,5.06,1.46,9.69,2.73,15,2,10-1.38,17.14-8.17,19-10,7-6.89,8.36-13.51,11-13,2.44.47,1.79,6.24,6,14a40,40,0,0,0,8,10c10.91,10.74,25.84,16.42,30,18a34.48,34.48,0,0,1,13,8c1.19,1.21,4.76,4.81,4,6-1.77,2.76-21.72-15.3-46-13-5.52.52-8.23,1.81-20,3a145,145,0,0,1-20,1c-12.78-.52-22.14-4.4-33-9-14.14-6-12.08-7.2-39-21-20.66-10.59-25.1-11.53-28-12-7.11-1.15-14.08-.91-15-4C1548.21,545.35,1552.31,541.74,1555,540Z"/><path class="cls-6" d="M1840,597.65c10.32-5.36,9.22-6.52,17-9.68,12.07-4.88,18.92-3.78,22-9.67,1.16-2.22.26-2.52,1-14,.89-13.7,2.32-15.43,3-16.12,3.44-3.48,6.91,0,14-3.22,2.28-1,5.55-4.28,12-10.75,8.08-8.1,8.67-9.57,9-10.74,1.68-5.93-1.9-9,0-14,1.66-4.32,6.84-8.32,10-7.52,11.25,2.84-6.3,65.72,5,132.17,1.49,8.79,6.21,33.61,0,36.54-1.83.86-4-.47-5-1.08-13.51-8-30.07-7.59-45-11.82-12.93-3.66-7.36-1.86-36-9.67-4.59-1.25-3.81-1-8.43-2.54-6.28-2-18-5-29.57-9.28-1.55-.58-7.37-3.16-19-8.33-10.76-4.78-12.74-5.76-15-7-1.86-1-19.28-10.66-18-14,.86-2.24,9.33.48,27,1a142.47,142.47,0,0,0,22-.68S1825.9,605,1840,597.65Z"/><path class="cls-2" d="M1945,664c-1.78-.66-21.54-4.44-61-12-72.86-13.94-76.46-13.82-89.05-19-41.62-17.11-38.8-33.41-74-43-33.94-9.23-38.9,5.24-77-2-37-7-34.79-21.13-90-41-32.79-11.79-50.6-18.2-77-20-30.2-2.06-48.24,3.48-59-9s-1.34-28.08-14-41c-8.84-9-17.17-5.22-35-11-36.4-11.78-43.41-41-58-37-7.58,2.08-6.85,10.26-27,53-10.82,22.93-14,26.9-17,30-12.72,13.16-34,20.75-41,24-24.91,11.56-10.14,40.14-40.28,70-19.6,19.41-32.63,14-49.24,37-9.23,12.8-8.38,18.89-19,32-13.63,16.83-29.57,24.74-38,29-67.5,34.12-101.25,51.18-109,65-6.9,12.31-14.68,42,75.28,169,29.64,41.85,75.66,123.67,128.2,158,172.26,112.56,586.48,243.54,756.47,30C2055.42,968.38,2012.29,689,1945,664Z"/><path class="cls-3" d="M1313,430c-2.67,1.31-1.82,5.68-3,14-.73,5.18-2,14.16-7,22-3.3,5.17-4.4,3.86-12,13-5.76,6.94-8.65,10.5-9,15-.47,6.05,3.49,10.9,7,15,18.48,21.57,27.72,32.35,40,37,15.25,5.77,15.27-1.45,32,4,21.28,6.93,24,19.51,46,24,6.86,1.4,16.78,3.42,23-2s2.59-13,10-22c3.83-4.67,8.22-6.78,17-11,14-6.75,23-7.25,23-10,0-2.44-7-4.23-14-6-11.93-3-20.89-5.16-32-3-6.37,1.24-10.12,3.27-14,1-3.51-2-5.08-6.43-6-9-2.15-6-.13-7.16-2-11-3.14-6.44-9.8-5.11-12-11-1.37-3.67,1.07-5,0-11-.52-2.95-1.27-7.16-4-10-5.93-6.17-14.88.74-29-5-3.67-1.49-3.51-2.14-10-5-7.19-3.17-9.32-3.23-14-6a47.56,47.56,0,0,1-9-7c-5.87-5.63-5.85-8.12-11-12C1320.22,431.9,1315.85,428.6,1313,430Z"/><path class="cls-3" d="M1599,576c1.91-1.68,14.29,12.81,35,21a70.67,70.67,0,0,0,13,4c7.33,1.46,10.79.85,21,2,8,.89,7,1.39,13,2,17.47,1.77,23.88-2.65,29,2,3.44,3.13,5,9.16,3,13-2.45,4.71-9.3,4.29-28,6-24.87,2.28-22.68,4-29,3-17.55-2.63-21.72-13.59-33-11-5,1.15-8.67,5.1-16,13-15.14,16.31-16.71,26.43-22,26-6.15-.51-11.89-14.84-10-27a27,27,0,0,1,7-15c10-10.27,23.3-5,27-12C1613.66,594.25,1596.89,577.87,1599,576Z"/><path class="cls-3" d="M1419,648c-2.88,4.63,19.37,15.78,20,36,.37,11.91-7,18.14-3,24,4.85,7,17,.15,26,8,8.66,7.55,2.75,18.6,11,25,7.88,6.11,23.49,4,31-4,7.12-7.56,1.81-14.91,10-28,1.94-3.1,6.9-11,16-15,13.43-5.86,23.94,2.11,28-3,3.74-4.71-.28-17.61-9-24-10.88-8-20.52.47-47-1-11.53-.64-22-3.43-43-9C1433.45,650.21,1421.12,644.59,1419,648Z"/><path class="cls-4" d="M1499,545a54,54,0,0,1,22,8c6.28,3.76,11.36,6.89,13,13,1.81,6.72-1.74,12.58-2,13-3.64,5.81-8.32,4.52-13,9-4.19,4-4,8.45-6,31-1.68,19.09-2.33,21.88-5,24-6.15,4.88-18.37,2.52-25-4-5.15-5.07-6.12-11.85-7-18-1.9-13.27,2.66-18.86-2-26a19.12,19.12,0,0,0-9-7c-8.62-3.66-18.49-1.28-25,3-11.21,7.37-9.54,18.49-17,20-7.69,1.56-18.39-8.45-17-14,2.2-8.74,34.19-5.53,37-17,.58-2.35-.36-4.12,1-8,1.53-4.37,4.58-7.4,8-10C1477.74,542.42,1499,545,1499,545Z"/><path class="cls-4" d="M1282.5,501.5a29.06,29.06,0,0,0,5,16c5.94,8.44,15.38,11,23,13,10.62,2.84,11.47.37,24,3,11,2.3,20.43,4.29,25,12,3.51,5.92,2.53,12.49,2,16-1.61,10.7-7.55,16.33-14,25-17.22,23.16-16.36,38.91-24,39-5.26.06-9.06-7.37-15-19-6.23-12.2-15.39-30.12-8-42,4.19-6.73,10.3-6.09,11-11,1.29-9-17.65-23.78-31-20-9.67,2.74-8.59,13-21,20-11.9,6.73-28.72,6.28-32,0-3-5.85,5.52-17,13-23,6.91-5.51,11.23-5.23,20-10A71.09,71.09,0,0,0,1282.5,501.5Z"/><path class="cls-4" d="M1618.6,624.07c-4.66,1.84-3,9.55-9.94,25.76-4.67,11-9.05,21.29-17.66,25.77-10.68,5.55-18.48-2.72-24.29,3.86-2.07,2.34-1.77,4.16-4.42,21.9s-3.56,20-5.52,21.9c-5.36,5.09-11.38-.78-17.67,2.58-12.4,6.62-16.1,43.92-5.52,51.53,9.18,6.6,31.05-7.72,39.75-27,6.68-14.84,2.57-25.92,11-33.5,7.8-7,14.4-.39,25.39-6.44,12.89-7.09,11-20.06,21-29.63,15.78-15.11,43.91-5.18,69.56,3.87,32.44,11.44,46.26,25.32,57.41,16.74,9.74-7.49,6.68-23.85,15.46-27.05,12-4.39,24.62,23.87,34.22,19.32,6.28-3,8.78-18.79,4.42-29.63-6.71-16.67-28.13-17.77-33.12-18-23.51-1.22-25.83,15-51.89,18-9,1.07-23.33-2.29-51.9-9-19.91-4.69-24.47-7.1-27.6-9C1630.59,635.72,1625.13,621.49,1618.6,624.07Z"/><path class="cls-4" d="M1655,658c-5.61-3.7-11.68-8.1-17-6-3.94,1.56-4.08,5.36-9,11-5.39,6.18-8.15,5-16,11-12.21,9.39-12,17.31-19,18-7.45.73-12.15-7.78-15-6-4,2.47,7,17.67,1,31-3.28,7.3-8.06,6.07-13,14-5.55,8.89-8.43,24.71,0,35,10.34,12.62,33.25,11.54,42,2,9-9.86-1.9-23.46,8-40,7.34-12.27,20.57-16.82,24-18,16.81-5.79,23.13,2.74,54,3,18.23.16,28.22.24,39-6,11.79-6.83,12.67-14.36,24-17s16.16,3.74,27,0c9.15-3.16,17.51-11.77,16-17-1.71-5.91-15.75-6.51-27-7-7.85-.34-23.84-.32-48,6-19.57,5.12-17.14,7.21-24,7C1686.08,678.52,1668.82,667.12,1655,658Z"/><path class="cls-5" d="M1313,441v-5c.06-3.85-.21-8.49-2-9-2.46-.7-6.6,6.69-9.1,11.21-6,10.85-7,16.1-11.41,27.57-2.89,7.58-5.92,15.53-12.44,23.49-8.89,10.86-14.49,9.79-24.88,22.46-4.57,5.57-5.18,7.85-7.67,11.63a10.69,10.69,0,0,1-2.7,3.68c-7.16,6.27-18.71-1.91-28.8,3-2.43,1.17-4.62,4.11-9,10-11.28,15.15-17.38,23.34-17.14,34,.13,6,2.26,11.31,0,20.42a44.29,44.29,0,0,1-1.94,5.85c-5.17,12.21-20.23,17.53-33.92,26.72a113.54,113.54,0,0,0-27,26c-8.84,12.09-6.48,19.61-17,31a64.93,64.93,0,0,1-16,13c-4.26,2.43-6,2.7-15,7-9.32,4.43-16.38,7.78-16,9,.47,1.53,12.35-.83,18-2,43.87-9.1,65.81-13.65,74-25,7.85-10.87,15.07-31.38,21-37,5.52-5.23,7.4-5,11-10,4.22-5.83,3-9.84,8-29.25,1.24-4.72,2.25-8.14,5-11.75s5-4.47,9-8,8.9-7.86,11-14c3.3-9.68-2.16-18.75,3-22.41l.44-.27a191,191,0,0,1,20.3-11c12.45-5.92,13.86-5.42,22.81-10.21a113.26,113.26,0,0,0,17.62-11.23,114.7,114.7,0,0,0,19.7-20.42c7.72-10.15,12.14-15.91,14.51-24.51C1320.3,461.93,1316.4,448.89,1313,441Z"/><path class="cls-7" d="M378.11,950.78c-1.31-5.46,36-17.34,112.39-51.5h0C525,884,549.85,871.76,554.71,869.41,597.84,848.64,665.16,831,677.63,827.7c49.73-13.05,55.51-10.06,77.26-21.63,37.13-19.76,36-36.84,64.22-54.59,14.79-9.31,18.91-10.74,160.54-8.24,54.5,1,81.75,1.44,117.4,5.15,19.94,2.07,33.73,4.13,151.52,27.81a285.42,285.42,0,0,1,53.5,15.68l3.19,1.31c50.35,21,103.21,35.12,154.52,53.56,141.33,50.82,276,27.9,276.44,39.66.41,10.5-107.14,22.79-124.42,24.72-87.31,9.75-123.6,6.66-250.35,10.81-85.94,2.82-149.5,6.57-216.74,11.33-81.93,5.81-95.47,9.31-173.59,13.39-31.47,1.65-73.61,3.8-127.43,4.12-72.07.44-77.17-2.93-199.67-6.18-92.08-2.43-138.93-3.58-178.61,0C416.51,949,379.4,956.16,378.11,950.78Z"/><path class="cls-8" d="M1943,864a502.65,502.65,0,0,0-82.76-17c-40.08-4.73-70.65-3.28-250.31,26.87,0,0-87.27,14.65-191.56,27.89-12.12,1.54-22.33,2.41-25.28,2.64-18.92,1.45-30.71.7-135.13,9.16-216,17.49-224.5,25.45-324.89,31-152.09,8.35-168.72-7.93-375-5.9-30.17.3-53.33,1-73.29,1.83-37.73,1.65-71.37,2.72-106.25,6.12C313,953,313.42,960,238.32,969.63c-58.65,7.55-88,11.33-119.53,11.8C79.54,982,41.3,999.87,2.32,1006.5c-5,.85-19.75,3.26-23.5,16.22-1.44,5-.67,9.46,0,14.75.53,4.18.69,19.5,1,50.13.27,25-.51,49.4-.51,49.4H1941Z"/><path class="cls-9" d="M1271,799c18.3,6,36,11.75,43,14,60.15,19.41,76.24,20.8,76,24-.57,7.66-91.92-7.86-219,7h0a129.33,129.33,0,0,1-51-2c-19-4.31-42.64-3.54-90-2-47.58,1.55-36.59,8.38-100.55,13.35C910,854.87,875.9,856.8,830,867h0c-127.23,3.65-159.07-2.54-160-10-.57-4.59,10.54-9.93,19-14,23-11.08,36.36-5.85,71-16,8.45-2.48,14.1-4.67,20-8a93.17,93.17,0,0,0,24-20c7.91-9.11,6.73-11.07,14-19a90.07,90.07,0,0,1,22-17c13.84-7.4,26.51-8.23,42-9,39.4-2,59.1-2.88,76-2,27.19,1.41,39.09,4.76,60,4,3.22-.12,14.14-.6,29,0,7.24.29,12.06.71,16,1,22.17,1.63,33,.51,44,1,25,1.12,23.76,9.32,60,17,26.52,5.62,26.11,1.64,53,8C1229.25,785.19,1232.91,786.54,1271,799Z"/><path class="cls-10" d="M1680.1,896.65a63.53,63.53,0,0,1,2.19-6.15c6.67-16.07,18.71-26.11,17.87-26.68s-11.75,10.14-13.9,9c-1.71-.93,2.9-8.93,4.87-12.35,4.16-7.24,6-8.2,9-14,2.91-5.64,5.93-14,3.48-15.15-2.26-1-8.36,4.47-9,3.93s7.75-8.15,6.26-9.54c-.82-.77-4,.84-4.87,0s1.61-3.42,2.09-3.93c6.53-7,10.77-18.69,9-19.64s-11.12,8.4-11.93,7.88c-1-.68,14-17,13.32-17.42-.51-.32-9.51,9.3-10.92,8.55-1-.54,2.09-6.54,5.62-11.35,3.09-4.2,6.49-7.51,6-7.87s-5,3.52-6.26,2.81c-1-.54.46-3.44.7-3.93,1.89-3.93,4.88-13.93,9.87-38.72,4.33,23.74,7.76,32.45,10.28,35.35.29.34,2.2,2.47,1.39,3.37-1.1,1.23-6.29-.89-7,0-.88,1.2,7.74,6.29,7,7.3-.55.71-5-1.59-6.25-.56-.63.53-.48,2.09,7,11.22,3.18,3.91,5.84,6.93,9.73,11.78,4.88,6.09,5.09,6.82,4.87,7-.93.63-11.36-8.43-11.82-8.09-.62.46,17.7,16.69,15.48,18.66-1,.86-5.2-1.73-6.45-.7-2.24,1.87,8.66,12.8,7.65,13.47-.84.56-8.68-6.81-9.73-6.17s5.55,10,11.12,16.83a84.45,84.45,0,0,1,8.34,11.79c1.91,3.3,3.81,6.64,2.78,7.29-2.24,1.42-15.86-11.45-18.07-10.1-1.74,1.06,5.74,9.57,11.82,24.13a103.68,103.68,0,0,1,4.17,12.07Z"/><path class="cls-10" d="M1744,890.45a178.08,178.08,0,0,0,7.54-18.37c2-5.82,2-6.72,3.52-11.17,5.64-16.62,13.09-25.16,11.13-26.62-2.19-1.64-12.45,8.48-14.65,6.92-3.58-2.54,18.58-32.8,15.82-34.6-1.62-1.06-10.23,9-12.89,7.45-2.23-1.27,1.11-9.82,3.52-16,2.92-7.47,4.38-8.94,7-16,3-7.83,4.72-15.54,3.52-16s-4.23,5.56-5.59,5.07c-.91-.33-.39-3.37-.27-4,1.69-9.39,11.57-54.76,13-61.22,7.93,26.46,14,49.31,11.64,50-1.28.39-4.86-5.56-5.27-5.32s2.34,4.7,5.86,11.17c4.67,8.6,5.15,10.32,4.61,10.68-1.08.73-5.63-4.53-7-3.76-1.59.93,2.53,9.91,7,17.57,6,10.28,12,16.85,11.13,17.57s-9.26-7.62-11.13-6.39c-.43.28-.92,1.33,7.62,18.63,2.79,5.66,4.29,11.95,8.2,17,1.27,1.65,3.2,3.91,2.34,5.32-1.38,2.29-8.32-.53-10,1.6-1.93,2.49,5.9,8.66,12.89,20.76,3.24,5.59,6.85,13.41,5.28,14.37-2.06,1.25-11.45-10.21-13.48-9-1.33.76.68,6.85,10.22,24.22Z"/><path class="cls-10" d="M1937.21,897.43a61.18,61.18,0,0,0-2.18-6.15c-6.68-16.08-18.72-26.12-17.88-26.69s11.75,10.15,13.9,9c1.71-.92-2.9-8.93-4.86-12.34-4.17-7.25-6-8.21-9-14-2.9-5.64-5.92-14-3.47-15.16,2.26-1,8.35,4.47,9,3.93s-7.74-8.14-6.25-9.54c.81-.76,4,.84,4.86,0s-1.6-3.41-2.08-3.93c-6.53-7-10.78-18.68-9-19.64s11.13,8.41,11.93,7.88c1-.68-14-17-13.32-17.42s9.51,9.3,10.93,8.56c1-.54-2.1-6.55-5.63-11.36-3.09-4.2-6.49-7.5-6-7.86s5,3.51,6.25,2.8c1-.53-.46-3.43-.69-3.92-1.89-3.93-4.89-13.94-9.88-38.73-4.33,23.75-7.75,32.45-10.28,35.36-.29.33-2.2,2.46-1.39,3.37,1.1,1.23,6.29-.89,6.95,0,.89,1.2-7.73,6.29-6.95,7.29.55.71,5.06-1.58,6.25-.56.63.54.48,2.09-7,11.22-3.18,3.92-5.83,6.93-9.73,11.79-4.87,6.09-5.08,6.82-4.87,7,.94.63,11.36-8.43,11.82-8.08.62.45-17.7,16.69-15.47,18.65,1,.87,5.2-1.72,6.44-.69,2.25,1.86-8.65,12.8-7.65,13.46.84.56,8.69-6.8,9.73-6.17s-5.55,10-11.12,16.84a84.82,84.82,0,0,0-8.34,11.78c-1.9,3.31-3.81,6.65-2.78,7.3,2.24,1.41,15.87-11.45,18.07-10.1,1.74,1.06-5.74,9.57-11.81,24.13a100,100,0,0,0-4.17,12.06Z"/><path class="cls-10" d="M1873.34,891.22a182.37,182.37,0,0,1-7.54-18.36c-2-5.83-2-6.72-3.51-11.18-5.65-16.62-13.09-25.15-11.14-26.62,2.2-1.64,12.45,8.49,14.65,6.93,3.58-2.54-18.57-32.81-15.82-34.61,1.63-1.06,10.23,9,12.89,7.46,2.23-1.27-1.11-9.82-3.51-16-2.92-7.47-4.39-8.94-7-16-3-7.84-4.72-15.55-3.51-16s4.22,5.55,5.58,5.06c.92-.33.39-3.36.28-4-1.69-9.39-11.57-54.76-13-61.22-7.92,26.47-14,49.31-11.64,50,1.28.39,4.86-5.56,5.28-5.32s-2.34,4.7-5.86,11.18c-4.68,8.6-5.15,10.31-4.62,10.67,1.09.73,5.64-4.52,7-3.75,1.59.92-2.53,9.91-7,17.57-6,10.28-12,16.85-11.14,17.56s9.27-7.61,11.14-6.39c.43.29.91,1.34-7.62,18.64-2.79,5.65-4.3,11.95-8.21,17-1.27,1.65-3.19,3.91-2.34,5.32,1.38,2.29,8.32-.52,10,1.6,1.93,2.5-5.9,8.67-12.89,20.76-3.24,5.6-6.85,13.41-5.28,14.37,2.06,1.26,11.45-10.21,13.48-9,1.34.77-.67,6.86-10.21,24.22Z"/><path class="cls-10" d="M1782,912.92a182.37,182.37,0,0,0,7.54-18.36c2-5.83,2-6.72,3.51-11.18,5.65-16.62,13.09-25.15,11.14-26.62-2.2-1.64-12.45,8.49-14.65,6.93-3.58-2.54,18.57-32.81,15.82-34.61-1.63-1.06-10.23,9-12.89,7.46-2.23-1.27,1.11-9.82,3.51-16,2.92-7.47,4.39-8.94,7-16,3-7.84,4.72-15.55,3.51-16s-4.22,5.55-5.58,5.06c-.92-.33-.39-3.36-.28-4,1.69-9.39,11.57-54.76,13-61.22,7.92,26.47,14,49.31,11.64,50-1.28.39-4.86-5.56-5.28-5.32s2.34,4.7,5.86,11.18c4.68,8.6,5.15,10.31,4.62,10.67-1.09.73-5.64-4.52-7-3.75-1.59.92,2.53,9.91,7,17.57,6.05,10.28,12,16.85,11.14,17.56s-9.27-7.61-11.14-6.39c-.43.29-.91,1.34,7.62,18.64,2.79,5.65,4.3,12,8.21,17,1.27,1.65,3.19,3.91,2.34,5.32-1.38,2.29-8.32-.52-10,1.6-1.93,2.5,5.9,8.67,12.89,20.76,3.24,5.6,6.85,13.41,5.28,14.37-2.06,1.26-11.45-10.21-13.48-9-1.34.77.67,6.86,10.21,24.22Z"/><path class="cls-10" d="M1562.79,906.73a61.18,61.18,0,0,1,2.18-6.15c6.68-16.08,18.72-26.12,17.88-26.69s-11.75,10.15-13.9,9c-1.71-.92,2.9-8.93,4.86-12.34,4.17-7.25,6-8.21,9-14,2.9-5.64,5.92-14,3.47-15.16-2.26-1-8.35,4.47-9,3.93s7.74-8.14,6.25-9.54c-.81-.76-4,.84-4.86,0s1.6-3.41,2.08-3.93c6.53-7,10.78-18.68,9-19.64s-11.13,8.41-11.93,7.88c-1-.68,14-17,13.32-17.42s-9.51,9.3-10.93,8.56c-1-.54,2.1-6.55,5.63-11.36,3.09-4.2,6.49-7.5,6-7.86s-5,3.51-6.25,2.8c-1-.53.46-3.43.69-3.92,1.89-3.93,4.89-13.94,9.88-38.73,4.33,23.75,7.75,32.45,10.28,35.36.29.33,2.2,2.46,1.39,3.37-1.1,1.23-6.29-.89-6.95,0-.89,1.2,7.73,6.29,6.95,7.29-.55.71-5.06-1.58-6.25-.56-.63.54-.48,2.09,7,11.22,3.18,3.92,5.83,6.93,9.73,11.79,4.87,6.09,5.08,6.82,4.87,7-.94.63-11.36-8.43-11.82-8.08-.62.45,17.7,16.69,15.47,18.65-1,.87-5.2-1.72-6.44-.69-2.25,1.86,8.65,12.8,7.65,13.46-.84.56-8.69-6.8-9.73-6.17s5.55,10,11.12,16.84a84.82,84.82,0,0,1,8.34,11.78c1.9,3.31,3.81,6.65,2.78,7.3-2.24,1.41-15.87-11.45-18.07-10.1-1.74,1.06,5.74,9.57,11.81,24.13a99.4,99.4,0,0,1,4.17,12.07Z"/><path class="cls-10" d="M1626.66,900.52a182.37,182.37,0,0,0,7.54-18.36c2-5.83,2-6.72,3.51-11.18,5.65-16.62,13.09-25.15,11.14-26.62-2.2-1.64-12.45,8.49-14.65,6.93-3.58-2.54,18.57-32.81,15.82-34.61-1.63-1.06-10.23,9-12.89,7.46-2.23-1.27,1.11-9.82,3.51-16,2.92-7.47,4.39-8.94,7-16,3-7.84,4.72-15.55,3.51-16s-4.22,5.55-5.58,5.06c-.92-.33-.39-3.36-.28-4,1.69-9.39,11.57-54.76,13-61.21,7.92,26.46,14,49.3,11.64,50-1.28.39-4.86-5.56-5.28-5.32s2.34,4.7,5.86,11.18c4.68,8.6,5.15,10.31,4.62,10.67-1.09.73-5.64-4.52-7-3.75-1.59.92,2.53,9.91,7,17.57,6,10.28,12,16.85,11.14,17.56s-9.27-7.61-11.14-6.39c-.43.29-.91,1.34,7.62,18.64,2.79,5.65,4.3,12,8.21,17,1.27,1.65,3.19,3.91,2.34,5.32-1.38,2.29-8.32-.52-10,1.6-1.93,2.5,5.9,8.67,12.89,20.76,3.24,5.6,6.85,13.41,5.28,14.37-2.06,1.26-11.45-10.21-13.48-9.05-1.34.77.67,6.86,10.21,24.22Z"/><path class="cls-10" d="M1819.9,907.5a63.53,63.53,0,0,0-2.19-6.15c-6.67-16.07-18.71-26.11-17.87-26.68s11.75,10.14,13.9,9c1.71-.93-2.9-8.93-4.87-12.35-4.16-7.24-6-8.2-9-14-2.91-5.64-5.93-14-3.48-15.15,2.26-1,8.36,4.47,9,3.93s-7.75-8.15-6.26-9.54c.82-.77,4,.84,4.87,0s-1.61-3.42-2.09-3.93c-6.53-7-10.77-18.69-9-19.64s11.12,8.4,11.93,7.88c1-.68-14-17-13.32-17.42.51-.32,9.51,9.3,10.92,8.55,1-.54-2.09-6.54-5.62-11.35-3.09-4.2-6.49-7.51-6-7.87s5,3.52,6.26,2.81c1-.54-.46-3.44-.7-3.93-1.89-3.93-4.88-13.93-9.87-38.72-4.33,23.74-7.76,32.45-10.28,35.35-.29.34-2.2,2.47-1.39,3.37,1.1,1.23,6.29-.89,7,0,.88,1.2-7.74,6.29-7,7.3.55.71,5-1.59,6.25-.56.63.53.48,2.09-7,11.22-3.18,3.91-5.84,6.93-9.73,11.78-4.88,6.09-5.09,6.82-4.87,7,.93.63,11.36-8.43,11.82-8.09.62.46-17.7,16.69-15.48,18.66,1,.86,5.2-1.73,6.45-.7,2.24,1.87-8.66,12.8-7.65,13.47.84.56,8.68-6.81,9.73-6.17s-5.55,10-11.12,16.83a84.45,84.45,0,0,0-8.34,11.79c-1.91,3.3-3.81,6.64-2.78,7.29,2.24,1.42,15.86-11.45,18.07-10.1,1.74,1.06-5.74,9.57-11.82,24.13a103.68,103.68,0,0,0-4.17,12.07Z"/><path class="cls-10" d="M1756,901.3a178.08,178.08,0,0,1-7.54-18.37c-2-5.82-2-6.72-3.52-11.17-5.64-16.62-13.09-25.16-11.13-26.62,2.19-1.64,12.45,8.48,14.65,6.92,3.58-2.54-18.58-32.8-15.82-34.6,1.62-1.06,10.23,9,12.89,7.45,2.23-1.27-1.11-9.82-3.52-16-2.92-7.47-4.38-8.94-7-16-3-7.83-4.72-15.54-3.52-16s4.23,5.56,5.59,5.07c.91-.33.39-3.37.27-4-1.69-9.39-11.57-54.76-13-61.22-7.93,26.46-14,49.31-11.64,50,1.28.39,4.86-5.56,5.27-5.32s-2.34,4.7-5.86,11.17c-4.67,8.6-5.15,10.32-4.61,10.68,1.08.73,5.63-4.53,7-3.76,1.59.93-2.53,9.91-7,17.57-6,10.28-12,16.85-11.13,17.57s9.26-7.62,11.13-6.39c.43.28.92,1.33-7.62,18.63-2.79,5.66-4.29,12-8.2,17-1.27,1.65-3.2,3.91-2.34,5.32,1.38,2.29,8.32-.53,10,1.6,1.93,2.49-5.9,8.66-12.89,20.76-3.24,5.59-6.85,13.41-5.28,14.37,2.06,1.25,11.45-10.21,13.48-9,1.33.76-.68,6.85-10.22,24.22Z"/><path class="cls-10" d="M1664.71,923a180.73,180.73,0,0,0,7.53-18.37c2-5.82,2-6.72,3.52-11.17,5.64-16.62,13.09-25.16,11.14-26.62-2.2-1.64-12.46,8.48-14.66,6.92-3.57-2.54,18.58-32.8,15.83-34.6-1.63-1.06-10.23,9-12.9,7.45-2.22-1.27,1.12-9.82,3.52-16,2.92-7.47,4.39-8.94,7-16,3-7.83,4.72-15.54,3.52-16s-4.23,5.56-5.58,5.07c-.92-.33-.39-3.37-.28-4,1.69-9.39,11.57-54.76,13-61.22,7.92,26.46,14,49.31,11.63,50-1.28.39-4.85-5.56-5.27-5.32s2.34,4.7,5.86,11.17c4.67,8.6,5.15,10.32,4.61,10.68-1.08.73-5.63-4.53-7-3.76-1.59.93,2.52,9.91,7,17.57,6,10.28,12,16.85,11.13,17.57s-9.26-7.62-11.13-6.39c-.43.28-.92,1.33,7.62,18.63,2.79,5.66,4.3,12,8.2,17,1.27,1.65,3.2,3.91,2.35,5.32-1.38,2.29-8.32-.53-10,1.6-1.93,2.49,5.9,8.66,12.9,20.76,3.24,5.59,6.85,13.41,5.27,14.37-2.06,1.25-11.44-10.21-13.48-9.05-1.33.76.68,6.85,10.22,24.22Z"/><path class="cls-5" d="M482,381c17,52.22,20,86.09,19.18,108-.21,5.8-1,28.57-.89,60.18,0,8.48.26,18.15.89,29.76,1.89,35.13,7.73,79.12,12.48,79,2.61,0,4.6-17.86,8.48-53.49,5.54-50.94,4.37-60.38,10.26-86.88,2.1-9.46,4.17-16.91,7.58-33.73,5.33-26.32,7.08-28.09,7.13-35.44.07-9.41-1.47-13.61.07-16.84a11.35,11.35,0,0,1,1.72-2.24c8.54-8.79,39,3.77,41.1-.38.73-1.48-2.57-4.15-15.24-15.29-15.11-13.3-16.54-14.86-21-17.38-4.2-2.4-8.94-4.3-23.19-7.49A416.57,416.57,0,0,0,482,381Z"/><path class="cls-3" d="M309,137a608.48,608.48,0,0,0,96.5,33.5c21.92,5.54,31.34,6.52,41,16,12.2,12,15.71,28.59,19,86,1.76,30.73,2.05,48.54,2.5,59.5,3.47,84.24,31.83,134.33,24,138-8.14,3.82-46.65-46.55-75.5-101.5-24.94-47.51-32.43-79-59-85-12.38-2.81-32.19-.85-45.5,10.5s-15.38,27.82-21,27c-4.32-.63-3.7-10.53-11-27-7.24-16.32-11.92-15.77-15.5-26.5-5.24-15.69,2.41-23.92,4-45,1.29-17-1.85-35.92-8-48-19.35-38-84-38.45-83.5-42.5C177.28,129.55,201.08,128.79,309,137Z"/><path class="cls-3" d="M130,220c29.29-6.94,38.07-4.84,40-1,3.85,7.67-19.94,21.86-16,38,2.52,10.32,15,15.69,18,17,15.19,6.56,21.91-2.43,35,3,14.89,6.17,21.87,24.28,26,35,5.53,14.35,2.51,17.56,8,26,11.27,17.33,32.31,16.57,32,21-.49,6.91-52.62,22-82-2-18.2-14.86-15.37-34.67-31-39-19.35-5.36-33.32,22.33-51,17-19.81-6-15-44.61-33-50-22.16-6.65-53.91,44.75-61,40-4.61-3.09,12.08-22.68,10-51S3.72,232.81,11,221c1.85-3,3.35-2.59,34.5-12.5,17.44-5.55,20.87-6.91,27-6,10.39,1.55,13,7.31,24.5,12.5C104.05,218.17,114.74,221.25,130,220Z"/><path class="cls-4" d="M191.12,136.51c14.69,29.19,14.27,46.46,10.77,57-10.7,32.27-10.77,32.4-10.77,32.4-2.31,4.52-4.41,7.85-3.59,12.29,1.79,9.66,15.64,15,20.35,16.77,16.48,6.3,21.32.13,28.73,5.58,11.57,8.52,3.11,26.06,16.76,35.76,1.87,1.33,6.76,4.8,10.77,3.35,5.7-2.07,4.95-12.42,7.18-40.23,1.69-21,3.09-27.09,6-33.52,5.21-11.54,11.25-10.9,13.16-19,3.18-13.45-8.69-26.61-18-36.88A103.09,103.09,0,0,0,239,145.45,106.4,106.4,0,0,0,191.12,136.51Z"/><path class="cls-4" d="M122.5,161.5c8.26-18.22,24.2-28.44,38-26,10.3,1.82,16.4,10.16,17,11,11.76,16.57,1.06,41.81,2,42,.66.13,6.2-12.28,2-16s-14.28,5-40,14c-11,3.86-16.66,5.79-24,6-16.62.46-35-7.22-35-14C82.49,169.1,117.8,162.37,122.5,161.5Z"/><path class="cls-4" d="M257.5,396.5c-34.63-25.23-47.54-19.19-51-17-9.94,6.3-4.42,20.44-7,68-2.76,50.77-10.6,62.95,0,83,4.32,8.17,10,14.48,16,30a115.3,115.3,0,0,1,8,32c1.76,18.93-2.59,29,0,30,3.9,1.48,17.88-19.88,26-44a144.9,144.9,0,0,0,8-56c-1.42-24.65-8-25-8-48,0-11.84-.08-40.49,17-52,8.8-5.93,13.81-1.68,23-8,15.89-10.92,21.12-37.52,14-43C293.93,364.13,260.54,393.77,257.5,396.5Z"/><path class="cls-6" d="M530.38,516.8a336.92,336.92,0,0,0-10.13,47.4c-2.32,16.61-1.65,20.72-4.35,43.57-3.6,30.39-5.34,27.83-7.39,49.43-2.68,28.19,0,35.82-4.7,56.74-3.44,15.42-7.8,24.32-7.37,24.79.74.81,13.32-25.76,24-59.21,3.2-10,5.64-18.92,10.53-36.79,6.72-24.54,7.77-30.65,8.34-34.38,1.52-10,1-12.12,2-39.4,1-28,1.59-42.15,3.6-50.69,4.37-18.61,7.74-20,9.7-33.36,1.67-11.52,1.37-28.76-8.69-52.36"/><path class="cls-3" d="M577.45,442.88c19.45,11,35.21,19.39,45.82,24.92,18,9.36,25,12.55,28.51,21.1,6.61,16-5.81,34.43-6.57,35.53-8.87,12.79-16.66,9.43-24.64,20.74-12.62,17.88-1.07,37.5-11,43.86-7.76,5-25-.47-29.82-11-7-15.12,17.46-28.39,21.55-65.64a87.75,87.75,0,0,0-2.2-31.92A86.44,86.44,0,0,0,577.45,442.88Z"/><path class="cls-11" d="M317.92,163.51a402.76,402.76,0,0,1,43.54,8.62c27.7,7.08,42.84,11,55.89,19.4,41.79,27.05,47.9,91.83,41.41,94.71-4.1,1.82-10.52-22.18-38.65-40.19-5.33-3.41-39.09-25-63.74-12.73-13.85,6.91-15.95,20.1-26.67,19.61-9.32-.42-17.74-10.84-20.4-20.39-2.72-9.79,1.36-16,4.9-31.57A155.13,155.13,0,0,0,317.92,163.51Z"/><path class="cls-3" d="M36.5,336.5c-3.87,18.16-8.19,37.89-13,59-5.28,23.2-6.4,27.24-6,35,1.36,26.26,16.84,31.23,25,59,3.86,13.15,2.58,30.43,0,65-3.35,45-8.81,58.52-1,64,9.38,6.58,31.87-2.69,40-18,6.11-11.52-.19-18.37,0-41,0-1.76.58-32,16-61,11.67-21.94,16.62-14.52,31-39,16.15-27.48,9.1-35.47,27-63,4.72-7.27,8.66-12,8-19-1.57-16.53-27-25.09-25-30,1.28-3.13,13-3.08,14,0,1.7,5.37-27.19,26.45-46,18-5.2-2.34-10.6-7.37-14-13-5.26-8.7-3-14.26-8-18-4.14-3.09-8.76-1.57-21,0A256.22,256.22,0,0,1,36.5,336.5Z"/><path class="cls-3" d="M727.48,595.05a29.65,29.65,0,0,0,2.68,14.8c3.61,7.48,8,7.47,12.13,15.51,2.45,4.78,3.11,9.07,4.38,17.46s.6,10.28,1.22,13.1c3.31,14.91,33.09,9.85,52.16,27.13,20.72,18.76,14.57,51,26.47,52.12,5,.49,10.12-4.86,12.13-9.22,3.15-6.87-.75-12.67-5.12-28.62-4.09-14.94-2-14.61-5.11-24.49-4.5-14.23-11.67-23.69-18.45-32.49-8.8-11.41-12.65-13.38-34.22-33.69-27.49-25.87-34.88-35.5-41.25-32.95C731.58,574.87,727.81,579,727.48,595.05Z"/><path class="cls-4" d="M372.48,428.34A318.74,318.74,0,0,0,389,473.85c9.19,20.31,13,23,19.32,38.73,3.2,8,12.51,31.66,12.88,61,.35,28.43-8.08,30-9.2,60-1.15,30.89,6.45,64.34,14.71,64.88,7,.46,13.94-22.89,17.48-34.86,6-20.33,4-25.54,8.28-49.38,7.38-41.49,17.86-50.84,19.32-79.4a89.3,89.3,0,0,1,2.76-19.37c4.13-15.86,10-19.67,12-27.11,4.23-16.23-16.62-25.72-47.84-69.72-23.24-32.76-34.86-49.14-37.71-57.13-2.06-5.76-5.07-15.54-11-16.46-5.7-.89-9.8,6.95-21.16,21.3-13.35,16.86-21.64,27.34-34,34.86-15.95,9.68-21.44,4-30.36,12.59-17.16,16.54-14,54.19-5.52,57.13,5.57,1.92,10.23-12.12,27.6-25.18C342.48,433.74,359.68,429.74,372.48,428.34Z"/><path class="cls-10" d="M144.09,975.87a63.53,63.53,0,0,1,2.19-6.15C153,953.64,165,943.61,164.15,943s-11.75,10.14-13.9,9c-1.71-.93,2.9-8.94,4.87-12.35,4.17-7.24,6-8.21,9-14,2.91-5.64,5.93-14,3.48-15.15-2.26-1-8.36,4.47-9,3.93s7.75-8.15,6.26-9.55c-.82-.76-4,.84-4.87,0s1.61-3.41,2.09-3.92c6.53-7,10.77-18.69,9-19.65s-11.12,8.41-11.93,7.89c-1-.69,14-17,13.32-17.43-.51-.31-9.51,9.3-10.92,8.56-1-.54,2.09-6.55,5.62-11.35,3.09-4.2,6.49-7.51,6-7.87s-5,3.52-6.26,2.81c-1-.54.46-3.44.7-3.93,1.89-3.93,4.88-13.94,9.87-38.72,4.34,23.74,7.76,32.44,10.28,35.35.29.33,2.2,2.46,1.39,3.37-1.1,1.23-6.29-.89-6.95,0-.88,1.2,7.74,6.29,6.95,7.29-.55.71-5-1.58-6.25-.56-.63.54-.48,2.09,7,11.23,3.18,3.91,5.84,6.92,9.73,11.78,4.88,6.09,5.09,6.82,4.87,7-.93.62-11.36-8.43-11.82-8.09-.62.46,17.7,16.69,15.48,18.65-1,.87-5.2-1.72-6.45-.69-2.24,1.86,8.66,12.8,7.65,13.47-.84.55-8.68-6.81-9.73-6.18s5.55,10,11.12,16.84a84.45,84.45,0,0,1,8.34,11.79c1.91,3.3,3.81,6.64,2.78,7.29-2.24,1.41-15.86-11.45-18.07-10.1-1.74,1.06,5.74,9.57,11.82,24.13a103.68,103.68,0,0,1,4.17,12.07Z"/><path class="cls-10" d="M208,969.67a179,179,0,0,0,7.54-18.37c2-5.82,2-6.72,3.52-11.18,5.64-16.62,13.09-25.15,11.13-26.61-2.19-1.64-12.45,8.48-14.65,6.92-3.58-2.54,18.58-32.81,15.83-34.6-1.63-1.07-10.24,9-12.9,7.45-2.23-1.27,1.11-9.82,3.52-16,2.92-7.47,4.38-8.94,7-16,3-7.84,4.72-15.54,3.52-16s-4.23,5.55-5.59,5.06c-.91-.32-.39-3.36-.27-4,1.69-9.38,11.57-54.76,13-61.21,7.93,26.46,14,49.31,11.64,50-1.28.39-4.86-5.56-5.27-5.33s2.34,4.7,5.86,11.18c4.67,8.6,5.15,10.32,4.61,10.68-1.08.73-5.63-4.53-7-3.76-1.59.93,2.53,9.91,7,17.57,6.05,10.28,12,16.85,11.13,17.57s-9.26-7.62-11.13-6.39c-.43.28-.92,1.33,7.62,18.63,2.79,5.65,4.29,12,8.2,17,1.27,1.65,3.2,3.91,2.34,5.33-1.38,2.28-8.32-.53-10,1.59-1.93,2.5,5.9,8.67,12.9,20.76,3.23,5.6,6.84,13.42,5.27,14.38-2.06,1.25-11.45-10.22-13.48-9-1.33.76.68,6.85,10.22,24.22Z"/><path class="cls-10" d="M401.2,976.64a63,63,0,0,0-2.18-6.15c-6.68-16.07-18.72-26.11-17.88-26.68s11.75,10.14,13.9,9c1.71-.92-2.9-8.93-4.86-12.35-4.17-7.24-6-8.2-9-14-2.9-5.64-5.92-14-3.47-15.15,2.26-1,8.35,4.47,9,3.93s-7.74-8.14-6.25-9.54c.81-.76,4.05.84,4.86,0s-1.6-3.41-2.08-3.93c-6.53-7-10.78-18.68-9-19.64s11.13,8.4,11.93,7.88c1-.68-14-17-13.32-17.42.51-.32,9.51,9.3,10.93,8.56,1-.55-2.1-6.55-5.63-11.36-3.09-4.2-6.49-7.5-6-7.86s5,3.51,6.25,2.8c1-.54-.46-3.44-.69-3.93-1.89-3.92-4.89-13.93-9.88-38.72-4.33,23.74-7.75,32.45-10.28,35.36-.29.33-2.2,2.46-1.39,3.36,1.1,1.24,6.3-.88,6.95,0,.89,1.2-7.73,6.3-6.95,7.3.55.71,5.06-1.58,6.25-.56.63.53.48,2.09-6.95,11.22-3.18,3.92-5.83,6.93-9.73,11.79-4.87,6.09-5.08,6.82-4.87,7,.94.63,11.36-8.43,11.82-8.09.62.46-17.7,16.7-15.47,18.66,1,.86,5.2-1.73,6.44-.7,2.25,1.87-8.65,12.81-7.65,13.47.84.56,8.69-6.81,9.73-6.17s-5.55,10-11.12,16.84a84.19,84.19,0,0,0-8.34,11.78c-1.9,3.31-3.81,6.65-2.78,7.3,2.24,1.41,15.87-11.46,18.07-10.11,1.74,1.07-5.74,9.58-11.81,24.14a100,100,0,0,0-4.17,12.06Z"/><path class="cls-10" d="M337.33,970.44a182.37,182.37,0,0,1-7.54-18.36c-2-5.83-2-6.73-3.51-11.18-5.65-16.62-13.09-25.16-11.14-26.62,2.2-1.64,12.45,8.48,14.65,6.92,3.58-2.53-18.57-32.8-15.82-34.6,1.63-1.06,10.23,9,12.89,7.45,2.23-1.26-1.11-9.81-3.51-16-2.92-7.46-4.39-8.93-7-16-2.95-7.83-4.72-15.54-3.51-16s4.22,5.55,5.58,5.06c.92-.33.39-3.37.28-4-1.69-9.39-11.57-54.76-13-61.22-7.92,26.46-14,49.31-11.64,50,1.28.39,4.86-5.56,5.28-5.32s-2.34,4.7-5.86,11.18c-4.68,8.6-5.15,10.31-4.62,10.67,1.09.73,5.64-4.52,7-3.75,1.59.92-2.53,9.9-7,17.56-6,10.29-12,16.86-11.14,17.57s9.27-7.61,11.14-6.39c.43.28.91,1.34-7.62,18.63-2.79,5.66-4.3,12-8.21,17-1.27,1.65-3.19,3.91-2.34,5.32,1.38,2.29,8.32-.53,10,1.6,1.93,2.49-5.9,8.66-12.89,20.76-3.24,5.59-6.85,13.41-5.28,14.37,2.06,1.26,11.45-10.21,13.48-9,1.34.76-.67,6.86-10.21,24.22Z"/><path class="cls-10" d="M246,992.14a180,180,0,0,0,7.54-18.36c2-5.83,2-6.73,3.51-11.18C262.71,946,270.15,937.44,268.2,936c-2.2-1.64-12.45,8.48-14.65,6.92-3.58-2.53,18.57-32.8,15.82-34.6-1.63-1.06-10.23,9-12.89,7.45-2.23-1.26,1.11-9.81,3.51-16,2.92-7.46,4.39-8.93,7-16,3-7.83,4.72-15.54,3.51-16s-4.22,5.55-5.58,5.06c-.92-.33-.39-3.37-.28-4,1.69-9.39,11.57-54.76,13-61.22,7.92,26.46,14,49.31,11.64,50-1.28.39-4.86-5.56-5.28-5.32s2.34,4.7,5.86,11.18c4.68,8.6,5.15,10.31,4.62,10.67-1.09.73-5.64-4.52-7-3.75-1.59.92,2.53,9.9,7,17.56,6.05,10.29,12,16.86,11.14,17.57s-9.27-7.61-11.14-6.39c-.43.28-.91,1.34,7.62,18.63,2.79,5.66,4.3,12,8.21,17,1.27,1.65,3.19,3.91,2.34,5.32-1.38,2.29-8.32-.53-10,1.6-1.93,2.49,5.9,8.66,12.89,20.76,3.24,5.59,6.85,13.41,5.28,14.37-2.06,1.26-11.45-10.21-13.48-9.05-1.34.76.67,6.86,10.21,24.22Z"/><path class="cls-10" d="M-10.22,1015.94A63,63,0,0,1-8,1009.79c6.68-16.07,18.72-26.11,17.88-26.68s-11.75,10.14-13.9,9c-1.71-.92,2.9-8.93,4.86-12.35,4.17-7.24,6-8.2,9-14,2.9-5.64,5.92-14,3.47-15.15-2.26-1-8.35,4.47-9,3.93S12,946.35,10.53,945c-.81-.76-4,.84-4.86,0s1.6-3.41,2.08-3.93c6.53-7,10.78-18.68,9-19.64s-11.13,8.4-11.93,7.88c-1-.68,14-17,13.32-17.42-.51-.32-9.51,9.3-10.93,8.56-1-.55,2.1-6.55,5.63-11.36,3.09-4.2,6.49-7.5,6-7.86s-5,3.51-6.26,2.8c-1-.54.46-3.44.69-3.93,1.89-3.92,4.89-13.93,9.88-38.72,4.33,23.74,7.75,32.45,10.28,35.36.29.33,2.2,2.46,1.39,3.36-1.1,1.24-6.29-.88-6.95,0-.89,1.2,7.74,6.3,7,7.3-.55.71-5.06-1.58-6.25-.56-.63.53-.48,2.09,7,11.22,3.18,3.92,5.83,6.93,9.73,11.79,4.87,6.09,5.08,6.82,4.87,7-.94.63-11.36-8.43-11.82-8.09-.62.46,17.7,16.7,15.47,18.66-1,.86-5.2-1.73-6.44-.7C45.12,948.5,56,959.44,55,960.1c-.84.56-8.69-6.81-9.73-6.17s5.55,10,11.12,16.84a84.19,84.19,0,0,1,8.34,11.78c1.91,3.31,3.81,6.65,2.78,7.3-2.24,1.41-15.87-11.46-18.07-10.11-1.74,1.07,5.74,9.58,11.81,24.14a100,100,0,0,1,4.17,12.06Z"/><path class="cls-10" d="M53.65,1009.74a180,180,0,0,0,7.54-18.36c2-5.83,2-6.73,3.51-11.18,5.65-16.62,13.09-25.16,11.14-26.62-2.2-1.64-12.45,8.48-14.65,6.92C57.61,958,79.76,927.7,77,925.9c-1.63-1.06-10.23,9-12.89,7.45-2.23-1.26,1.11-9.81,3.51-16,2.92-7.46,4.39-8.93,7-16,3-7.83,4.72-15.54,3.51-16S74,891,72.6,890.51c-.92-.33-.39-3.37-.28-4,1.69-9.39,11.57-54.76,13-61.22,7.92,26.46,14,49.31,11.64,50-1.28.39-4.86-5.56-5.28-5.32s2.34,4.7,5.86,11.18c4.68,8.6,5.15,10.31,4.62,10.67-1.09.73-5.64-4.52-7-3.75-1.59.92,2.53,9.9,7,17.56,6.05,10.29,12,16.86,11.14,17.57s-9.27-7.61-11.14-6.39c-.43.28-.91,1.34,7.62,18.63,2.79,5.66,4.3,12,8.21,17,1.27,1.65,3.19,3.91,2.34,5.32-1.38,2.29-8.32-.53-10,1.6-1.93,2.49,5.9,8.66,12.89,20.76,3.24,5.59,6.85,13.41,5.28,14.37-2.06,1.26-11.45-10.21-13.48-9.05-1.34.76.67,6.86,10.21,24.22Z"/><path class="cls-10" d="M246.89,1016.72a63.53,63.53,0,0,0-2.19-6.15C238,994.49,226,984.46,226.83,983.89s11.75,10.14,13.9,9c1.71-.93-2.9-8.94-4.87-12.35-4.16-7.24-6-8.21-9-14-2.91-5.64-5.93-14-3.48-15.15,2.26-1.05,8.36,4.47,9,3.93s-7.75-8.15-6.26-9.55c.82-.76,4.05.84,4.87,0s-1.61-3.41-2.09-3.92c-6.53-7-10.77-18.69-9-19.65S231,930.56,231.81,930c1-.69-14-17-13.32-17.43.51-.31,9.51,9.3,10.92,8.56,1-.54-2.09-6.55-5.62-11.35-3.09-4.2-6.49-7.51-6-7.87s5,3.52,6.26,2.81c1-.54-.46-3.44-.7-3.93-1.89-3.93-4.88-13.94-9.87-38.72-4.33,23.74-7.75,32.44-10.28,35.35-.29.33-2.2,2.46-1.39,3.37,1.1,1.23,6.29-.89,6.95,0,.88,1.2-7.74,6.29-6.95,7.29.55.71,5.05-1.58,6.25-.56.63.54.48,2.09-6.95,11.23-3.18,3.91-5.84,6.92-9.73,11.78-4.88,6.09-5.09,6.82-4.87,7,.93.62,11.36-8.43,11.82-8.09.62.46-17.7,16.69-15.48,18.65,1,.87,5.2-1.72,6.45-.69,2.24,1.86-8.66,12.8-7.65,13.47.84.55,8.68-6.81,9.73-6.18s-5.55,10-11.12,16.84a84.45,84.45,0,0,0-8.34,11.79c-1.91,3.3-3.81,6.64-2.78,7.29,2.24,1.41,15.86-11.45,18.07-10.1,1.74,1.06-5.74,9.57-11.81,24.13a102.22,102.22,0,0,0-4.18,12.07Z"/><path class="cls-10" d="M183,1010.52a179,179,0,0,1-7.54-18.37c-2-5.82-2-6.72-3.52-11.18-5.64-16.62-13.09-25.15-11.13-26.61,2.19-1.64,12.45,8.48,14.65,6.92,3.58-2.54-18.57-32.81-15.82-34.6,1.62-1.07,10.23,9,12.89,7.45,2.23-1.27-1.11-9.82-3.52-16-2.92-7.47-4.38-8.94-7-16-2.95-7.84-4.72-15.54-3.52-16s4.23,5.55,5.59,5.06c.91-.32.39-3.36.27-4-1.68-9.38-11.56-54.76-13-61.21-7.93,26.46-14,49.31-11.64,50,1.28.39,4.86-5.56,5.27-5.33s-2.34,4.7-5.86,11.18c-4.67,8.6-5.15,10.32-4.61,10.68,1.08.73,5.63-4.53,7-3.76,1.59.93-2.53,9.91-7,17.57-6,10.28-12,16.85-11.13,17.57s9.26-7.62,11.13-6.39c.44.28.92,1.33-7.61,18.63-2.8,5.65-4.3,12-8.21,17-1.27,1.65-3.2,3.91-2.34,5.33,1.38,2.28,8.32-.53,10,1.59,1.93,2.5-5.9,8.67-12.89,20.76-3.24,5.6-6.85,13.42-5.28,14.38,2.06,1.25,11.45-10.22,13.48-9.05,1.33.76-.68,6.85-10.22,24.22Z"/><path class="cls-10" d="M91.7,1032.22a181.72,181.72,0,0,0,7.53-18.37c2-5.82,2-6.72,3.52-11.18,5.64-16.62,13.09-25.15,11.14-26.61-2.2-1.64-12.46,8.48-14.66,6.92-3.57-2.54,18.58-32.81,15.83-34.6-1.63-1.07-10.23,9-12.9,7.45-2.22-1.27,1.12-9.82,3.52-16,2.92-7.47,4.39-8.94,7-16,3-7.84,4.72-15.54,3.52-16s-4.23,5.55-5.58,5.06c-.92-.32-.39-3.36-.28-4,1.69-9.38,11.57-54.76,13-61.21,7.92,26.46,14,49.31,11.63,50-1.28.39-4.85-5.56-5.27-5.33s2.34,4.7,5.86,11.18c4.67,8.6,5.15,10.32,4.61,10.68-1.08.73-5.63-4.53-7-3.76-1.59.93,2.52,9.91,7,17.57,6.05,10.28,12,16.85,11.14,17.57s-9.27-7.62-11.14-6.39c-.43.28-.92,1.33,7.62,18.63,2.79,5.65,4.3,11.95,8.2,17,1.27,1.65,3.2,3.91,2.35,5.33-1.38,2.28-8.32-.53-10,1.59-1.93,2.5,5.9,8.67,12.9,20.76,3.24,5.6,6.85,13.42,5.27,14.38-2.06,1.25-11.44-10.22-13.48-9-1.33.76.68,6.85,10.22,24.22Z"/><path class="cls-10" d="M249.05,963c.53-2.09,1.37-5.1,2.62-8.64,8-22.57,22.48-36.67,21.47-37.47S259,931.12,256.45,929.49c-2-1.3,3.48-12.54,5.84-17.34,5-10.17,7.25-11.53,10.85-19.71,3.49-7.92,7.12-19.69,4.18-21.28-2.72-1.47-10,6.28-10.86,5.52s9.3-11.44,7.52-13.4c-1-1.07-4.87,1.18-5.85,0s1.93-4.79,2.51-5.52c7.84-9.82,12.94-26.24,10.85-27.59S268.13,842,267.16,841.24c-1.25-1,16.79-23.89,16-24.47-.61-.44-11.42,13.07-13.12,12-1.24-.76,2.51-9.19,6.75-15.95,3.71-5.89,7.8-10.54,7.2-11s-6,4.93-7.51,3.94c-1.16-.76.55-4.83.84-5.52,2.26-5.51,5.86-19.57,11.86-54.39,5.2,33.35,9.3,45.58,12.34,49.66.35.47,2.64,3.46,1.67,4.73-1.32,1.73-7.56-1.24-8.35,0-1.06,1.69,9.29,8.84,8.35,10.25-.66,1-6.07-2.23-7.51-.79-.75.75-.57,2.94,8.35,15.76,3.82,5.5,7,9.73,11.68,16.56,5.86,8.55,6.11,9.57,5.85,9.78-1.12.88-13.64-11.84-14.19-11.36-.75.64,21.26,23.44,18.58,26.2-1.18,1.22-6.24-2.42-7.73-1-2.7,2.62,10.39,18,9.18,18.92-1,.78-10.43-9.56-11.69-8.67s6.67,14.05,13.36,23.65a119.46,119.46,0,0,1,10,16.55c2.3,4.64,4.58,9.34,3.34,10.25-2.68,2-19.05-16.09-21.7-14.19-2.08,1.49,6.89,13.44,14.19,33.89a159.26,159.26,0,0,1,5,17Z"/><path class="cls-10" d="M325.76,954.28c2.39-5.87,5.76-14.71,9.05-25.79,2.43-8.18,2.41-9.45,4.22-15.7,6.78-23.34,15.72-35.33,13.38-37.39-2.64-2.3-15,11.92-17.6,9.72-4.3-3.56,22.31-46.07,19-48.59-1.95-1.5-12.28,12.59-15.48,10.46-2.68-1.78,1.34-13.79,4.22-22.43,3.51-10.49,5.27-12.55,8.45-22.43,3.54-11,5.67-21.83,4.22-22.43s-5.07,7.8-6.7,7.12c-1.11-.47-.47-4.73-.34-5.62,2-13.19,13.9-76.91,15.59-86,9.52,37.16,16.86,69.25,14,70.28-1.54.54-5.84-7.81-6.34-7.48s2.81,6.6,7,15.7c5.61,12.08,6.18,14.49,5.54,15-1.3,1-6.77-6.36-8.36-5.28-1.9,1.3,3,13.92,8.45,24.67,7.27,14.45,14.45,23.67,13.37,24.68s-11.12-10.7-13.37-9c-.52.39-1.1,1.87,9.15,26.16,3.35,7.95,5.16,16.79,9.85,23.93,1.53,2.32,3.84,5.49,2.82,7.48-1.66,3.21-10-.74-12,2.24-2.32,3.5,7.09,12.17,15.49,29.16,3.89,7.86,8.22,18.84,6.33,20.18-2.47,1.77-13.74-14.34-16.18-12.71-1.61,1.07.81,9.63,12.27,34Z"/><path class="cls-10" d="M481.12,955.37c-2.39-5.87-5.75-14.71-9.05-25.79-2.43-8.19-2.4-9.45-4.22-15.7-6.78-23.35-15.72-35.33-13.37-37.39,2.63-2.3,14.95,11.91,17.59,9.72,4.3-3.56-22.31-46.07-19-48.6,1.95-1.49,12.29,12.6,15.48,10.47,2.68-1.78-1.33-13.79-4.22-22.43-3.5-10.49-5.27-12.55-8.45-22.43-3.54-11-5.67-21.83-4.22-22.43s5.08,7.8,6.71,7.12c1.1-.47.47-4.73.33-5.62-2-13.19-13.9-76.91-15.59-86-9.51,37.16-16.86,69.25-14,70.28,1.54.54,5.83-7.81,6.33-7.48s-2.81,6.6-7,15.7c-5.61,12.08-6.18,14.49-5.54,15,1.31,1,6.77-6.36,8.36-5.28,1.91,1.3-3,13.92-8.45,24.67-7.27,14.44-14.44,23.67-13.37,24.68,1.23,1.15,11.12-10.7,13.37-9,.52.4,1.1,1.88-9.15,26.17-3.35,7.95-5.16,16.79-9.85,23.93-1.53,2.31-3.84,5.49-2.82,7.47,1.66,3.22,10-.74,12,2.25,2.32,3.5-7.09,12.17-15.49,29.16-3.89,7.85-8.22,18.84-6.33,20.18,2.47,1.77,13.75-14.34,16.19-12.71,1.6,1.07-.82,9.63-12.27,34Z"/><path class="cls-10" d="M371.45,985.85c2.4-5.88,5.76-14.72,9.05-25.79,2.44-8.19,2.41-9.45,4.23-15.71C391.5,921,400.45,909,398.1,907c-2.64-2.3-15,11.91-17.6,9.72-4.29-3.56,22.31-46.07,19-48.6-2-1.49-12.29,12.6-15.49,10.47-2.67-1.78,1.34-13.79,4.23-22.43,3.5-10.49,5.26-12.55,8.44-22.43,3.55-11,5.67-21.83,4.22-22.43s-5.07,7.8-6.7,7.11c-1.1-.46-.47-4.73-.33-5.61,2-13.19,13.89-76.92,15.58-86,9.52,37.17,16.86,69.26,14,70.28-1.54.55-5.84-7.8-6.34-7.47s2.81,6.6,7,15.7c5.62,12.08,6.19,14.49,5.54,15-1.3,1-6.76-6.35-8.35-5.27-1.91,1.3,3,13.91,8.44,24.67,7.27,14.44,14.45,23.67,13.38,24.67-1.24,1.16-11.13-10.69-13.38-9-.51.4-1.1,1.88,9.15,26.17,3.36,7.94,5.17,16.79,9.86,23.93,1.52,2.31,3.84,5.49,2.81,7.47-1.65,3.21-10-.74-12,2.25-2.32,3.5,7.08,12.17,15.48,29.15,3.89,7.86,8.23,18.84,6.34,20.19-2.48,1.76-13.75-14.34-16.19-12.71-1.6,1.07.81,9.63,12.27,34Z"/><path class="cls-10" d="M79.16,1006.14c.53-2.09,1.37-5.1,2.62-8.64,8-22.57,22.48-36.67,21.47-37.47s-14.11,14.24-16.69,12.61c-2-1.3,3.48-12.54,5.84-17.34,5-10.17,7.25-11.53,10.85-19.71,3.49-7.92,7.12-19.69,4.17-21.28-2.71-1.47-10,6.28-10.85,5.52s9.3-11.44,7.52-13.4c-1-1.07-4.87,1.18-5.85,0s1.93-4.79,2.51-5.52c7.84-9.82,12.94-26.24,10.85-27.59s-13.36,11.81-14.33,11.07c-1.25-.95,16.79-23.89,16-24.47-.62-.44-11.42,13.07-13.12,12-1.25-.76,2.51-9.19,6.75-16,3.71-5.89,7.8-10.54,7.2-11s-6,4.94-7.51,3.94c-1.16-.76.55-4.83.83-5.52,2.27-5.51,5.87-19.57,11.86-54.39,5.21,33.35,9.31,45.58,12.35,49.66.35.47,2.64,3.46,1.67,4.73-1.32,1.73-7.56-1.24-8.35,0-1.06,1.69,9.29,8.84,8.35,10.25-.67,1-6.07-2.22-7.51-.79-.76.75-.57,2.94,8.35,15.77,3.82,5.49,7,9.72,11.68,16.55,5.86,8.55,6.11,9.57,5.85,9.78-1.12.88-13.64-11.84-14.2-11.36-.74.64,21.26,23.45,18.59,26.2-1.18,1.22-6.24-2.42-7.73-1-2.7,2.63,10.39,18,9.18,18.92-1,.78-10.43-9.56-11.69-8.67s6.67,14.05,13.36,23.65a119.46,119.46,0,0,1,10,16.55c2.29,4.64,4.58,9.34,3.34,10.25-2.68,2-19.05-16.09-21.7-14.19-2.08,1.49,6.89,13.44,14.19,33.89a159.26,159.26,0,0,1,5,16.95Z"/><path class="cls-10" d="M155.87,997.43c2.39-5.87,5.75-14.71,9-25.79,2.43-8.18,2.4-9.44,4.22-15.7,6.78-23.34,15.72-35.33,13.38-37.39-2.64-2.3-15,11.92-17.6,9.72-4.3-3.56,22.31-46.07,19-48.59-1.95-1.5-12.29,12.59-15.48,10.46-2.68-1.78,1.33-13.79,4.22-22.43,3.51-10.49,5.27-12.55,8.45-22.43,3.54-11,5.67-21.83,4.22-22.43s-5.08,7.8-6.71,7.12c-1.1-.47-.46-4.73-.33-5.62,2-13.19,13.9-76.91,15.59-86,9.51,37.16,16.86,69.25,14,70.28-1.54.55-5.83-7.81-6.33-7.48s2.81,6.6,7,15.7c5.61,12.08,6.18,14.49,5.54,15-1.3,1-6.77-6.36-8.36-5.28-1.91,1.3,3,13.92,8.45,24.68,7.27,14.44,14.44,23.67,13.37,24.67-1.23,1.15-11.12-10.7-13.37-9-.52.39-1.1,1.87,9.15,26.16,3.35,8,5.16,16.79,9.85,23.93,1.53,2.32,3.84,5.49,2.82,7.48-1.66,3.21-10-.74-12,2.24-2.32,3.51,7.09,12.17,15.49,29.16,3.89,7.86,8.22,18.84,6.33,20.18-2.47,1.77-13.74-14.34-16.19-12.71-1.6,1.08.82,9.63,12.28,34Z"/><path class="cls-10" d="M311.23,998.52c-2.39-5.87-5.76-14.71-9.05-25.79-2.43-8.19-2.41-9.45-4.22-15.7-6.78-23.35-15.72-35.33-13.38-37.39,2.64-2.3,15,11.91,17.6,9.72,4.3-3.56-22.31-46.07-19-48.6,1.95-1.49,12.28,12.6,15.48,10.47,2.68-1.78-1.34-13.79-4.22-22.43-3.51-10.49-5.27-12.55-8.45-22.43-3.54-11-5.67-21.83-4.22-22.43s5.08,7.8,6.71,7.12c1.1-.47.46-4.73.33-5.62-2-13.19-13.9-76.91-15.59-86-9.52,37.16-16.86,69.25-14,70.28,1.54.54,5.84-7.81,6.34-7.48s-2.81,6.6-7,15.7c-5.61,12.08-6.18,14.49-5.54,15,1.3,1,6.77-6.36,8.36-5.28,1.9,1.3-3,13.92-8.45,24.67C245.64,866.8,238.46,876,239.54,877c1.23,1.15,11.12-10.7,13.37-9,.52.4,1.1,1.88-9.15,26.17-3.35,7.95-5.16,16.79-9.85,23.93-1.53,2.32-3.84,5.49-2.82,7.47,1.66,3.22,10-.73,12,2.25,2.32,3.5-7.09,12.17-15.49,29.16-3.89,7.86-8.22,18.84-6.33,20.18,2.47,1.77,13.74-14.34,16.18-12.71,1.61,1.07-.81,9.63-12.27,34Z"/><path class="cls-3" d="M550,585c-3.17,29.85-4.69,38.71-7,48-2,7.93-2.34,7.41-5,18-5.64,22.45-8.37,33.74-4,37,3.6,2.68,11-.74,25.71-7.58C571.51,675,574,672.14,579,673c4.27.74,8.48,3.84,16,17a164.26,164.26,0,0,1,15,35c8,28.35,7,42.62,11,43,4.34.41,9.67-16,11.71-26.58a73.76,73.76,0,0,0,1-25C629.44,686.78,605.38,671.53,609,667c2.47-3.09,15.91,1.2,25,10,9.32,9,11.59,20.42,13,20,2.07-.62-8.58-23.55,1-42,1.27-2.45,5.81-11.2,14-13,5.67-1.25,8.59,1.82,20,4,7.16,1.37,17.64,2.38,18,1,.65-2.52-30.5-19.92-69-23-17.24-1.38-27.14.81-39-7-9.39-6.19-14.29-14.88-20-25-12.43-22-13.79-39.33-17-39C553,553.21,552.64,560.14,550,585Z"/><path class="cls-4" d="M648,534a52.73,52.73,0,0,1-15.23,10.09,16.56,16.56,0,0,0-4.37,2.32c-3.68,2.87-5.16,7.06-6.4,12.59-2.8,12.48-5,22.2.31,30.64a29.23,29.23,0,0,0,4.37,5.22c7.08,7.19,14.19,9.32,13.91,10.09-.46,1.29-20.27-4.84-20.59-4-.38,1.08,28.4,10.21,27.55,14.71S618.06,617.82,618,619c0,1,18.87-.41,42,6,18.08,5,30.21,12.41,34,8,1.77-2.06,1-5.84,0-8-4.44-9.91-21.59-6.74-23.85-14-1.9-6.09,8.13-11,7-18.83-1-6.58-4.77-8-6.31-12.2a14.41,14.41,0,0,1-.65-3.94c-.44-4.07-1-9,.85-12,2.51-4.18,7.76-2,13.93-5.45C693.05,554,697.07,543,695,541c-2.56-2.43-14,9.55-41,22-5.87,2.71-15.55,6.86-16,6s5.93-5,11-8c14.63-8.65,21.58-8.33,25-15,1.45-2.84,1.3-5.89,1-12-.07-1.43-1.3-23.54-8-25C662,507.9,654.32,518.6,648,534Z"/></svg>