<svg id="Layer_1" data-name="Layer 1" xmlns="http://www.w3.org/2000/svg" width="480" height="280" viewBox="0 0 480 280"><defs><style>.cls-1{fill:#8cc63f;}.cls-2{fill:#006837;}.cls-3{fill:#39b54a;}.cls-4{fill:#72932e;}</style></defs><path class="cls-1" d="M261.75,156.35l1.2-7.21,35.54-1.94,1.08-14.95L246,128.84l17.48-37.77.83-11.44-18.07-1.15L216.94,117l-8.65-31L191,90.2,179.68,124,167,83.15l-20.69-5.73.83,7.34,15,65.91-1.82,25.07L132,238.88c2.43,4.39,4,9.06,8.24,12.54,4.57,3.74,10.3,6.66,15.53,9.63.76.43,1.55.9,2.36,1.38,5.27,1.36,9.34,3.17,15.14,2.67a29.45,29.45,0,0,0,11.92-3.6l17.94-38L233.37,191l66.52-.4,1.65-22.77Z"/><path class="cls-2" d="M145.07,109.74c-5.72,4.34-23.07,1.14-31.14-6.5-1.59-1.5-8.19-7.75-7.06-14,.2-1.1.7-2.58-.38-4-1.82-2.43-5.85-1.79-9.16-3.59-5.49-3-4.71-10.36-4.45-12.81a19.78,19.78,0,0,1,9.82-14.91c7.07-4.18,12.65-2.35,15.23-6.05,2.79-4-2.68-7.59-1.07-13.1C118.33,29.72,124.65,27,129,25c11.55-5.21,17.89-1.75,26.76-7.31,4.43-2.79,4.48-4.67,8.47-5.48,5.49-1.11,12.91,1,17.15,4.6,3.25,2.79,2.6,4.76,5.63,5.87,4.77,1.75,11-1.45,11.57-1.77,5.32-2.82,3.82-5.6,8-9,5.2-4.2,13.08-4.48,25.24-4.91,8.2-.29,12.29-.44,15.36,1.48,5.21,3.26,2.55,8.35,8,11,3.92,1.95,6.35-.24,12.64,1.81a22.65,22.65,0,0,1,9.65,6.12c4.68,5.06,2.95,8.93,6,9.91s5.64-2.55,13.9-6.13c3.49-1.52,12.32-5.23,23.19-4.54,3.17.2,7.55.48,11.91,2.76,6.08,3.18,9.36,8.81,9.07,14.11-.33,6.12-8.51,8.54-6.86,11.09,1.5,2.32,7.63.29,12.54,3.31,5.2,3.18,5.62,9.91,4.35,14.31-2.16,7.46-9.39,8.73-8.3,12.5,1.3,4.48,11.84,3.56,23.49,10,1.89,1,13.85,7.87,17.41,19.65.28.92,4.74,16.51-5.68,22.69-3.77,2.24-7.61,2.13-8.39,4.48-1.19,3.54,7,5.46,8.61,11.07,2.42,8.29-11.7,16.72-14.09,18.15-4.76,2.84-9.81,2-11.11,4.8-1.51,3.23,2.84,7.17,3.48,7.74,8.5,7.53,21.55,2.79,27.61,8.78,5,4.93,2.61,14.54-3.41,19.32-3.95,3.14-7.69,2.8-9.18,5.93-2.16,4.59,4.56,8.09,2.49,12.19-1.81,3.58-9,5-13.83,5.13-11.46.24-14.62-7.06-23.74-6.52-7.84.46-7.84,6-19.61,10.78-8.82,3.57-22.68,6.08-27.07,2.28-5.36-4.63,7.9-14.74,1.59-21.95-4.62-5.27-15.3-3.94-16.87-8.59-1.33-3.91,5.72-6.43,4.18-11.26-1.24-3.88-6.53-4.53-6.23-6.91.49-3.9,14.86-3.05,17.42-8.41,2.06-4.29-5.91-7.45-4.41-13.31,1.43-5.62,9.94-7.37,8.79-10s-9.21-.8-15.11-5c-4.52-3.19-6.93-9.29-4.42-13.31s9.42-5.81,8.34-8.07a1.64,1.64,0,0,0-.33-.44c-2.77-3-11.35,1.51-16-1.52-3.66-2.38-.11-6-3.86-11.77-3-4.63-6.15-3.82-10.13-8.67-5.56-6.77-1.8-11.33-6.39-13.94-4.88-2.76-9.78,2-19.56.76-13.09-1.69-17.41-11.92-24.79-10.6-4.89.88-3.58,5.48-10.06,8.88-8.71,4.58-23.92,3.05-28.76-2.33-3.54-3.94-1.14-9.54-2-9.65-1.26-.16-2.71,12.57-7.67,13-4,.38-8.63-8.9-9.46-8.63s3.83,6.13,3,13.73C147.26,106.12,147.05,108.24,145.07,109.74Z"/><path class="cls-3" d="M350.69,106.11c-5.21-6.32-9.29-17.37,1.69-13.3,17.34,6.42,27.65,11.64,28.87,27.4,1.48,19-14.86,7.71-14.18-6.2C367.37,107.86,355,111.31,350.69,106.11Z"/><path class="cls-3" d="M240.27,84.05c5.61.17,9.12,6.11,1.53,8.42-12,3.64-16.42,4.91-24.29-3-9.52-9.55,1.48-10,7.75-2.77C228,89.91,235.65,83.91,240.27,84.05Z"/><path class="cls-3" d="M142.71,99.19c2.79,2.93,1.11,8-4.23,8.39-8.44.57-13.32-7-13.77-11.42-.54-5.37,5.15-9.36,9.27-.23C135.8,100,140.4,96.77,142.71,99.19Z"/><path class="cls-3" d="M286.53,52c6.71-6.1,14-12.11,23.35-14.75s20.28-2.29,28.43,2.23C332,30,319.56,26.93,308,30.63S289.42,41.73,286.53,52Z"/><path class="cls-3" d="M320.58,213.56c2.26,5.75-1,13.11-6.87,16.69s-9.5,8.09-17.16,8.93c8.17.79,14.41-.41,21.24-4.36S323.92,219.48,320.58,213.56Z"/><path class="cls-4" d="M177.62,273.15c-4.42-4.37-12.47-7.56-18.26-9.69s-4.8-5.16-9.58-7.4C161,244.83,177.11,242,191.55,218.9s53.34-38.38,88.42-30.64c-21.65,5.87-53.78,15.79-69.12,29.8S191.5,256.14,177.62,273.15Z"/><path class="cls-4" d="M230,99.07c4.21,1.26,10.31-2.8,14.9-1.51s4.33,4.28,5.36,7.55c-8.23,5.31-16.37,11.41-24.43,16.61s-16.44,10.22-22.7,17c4.83-6.85,12-14.18,14.27-21.46S228,106.62,230,99.07Z"/></svg>